<svg width="23" height="23" viewBox="0 0 23 23" fill="none" xmlns="http://www.w3.org/2000/svg">
<path d="M8.4758 10.7671C6.40312 10.7671 4.72286 9.0868 4.72286 7.01413V4.01177C4.72286 3.5973 5.05897 3.26119 5.47344 3.26119H6.22403C6.63851 3.26119 6.97462 2.92507 6.97462 2.5106C6.97462 2.09612 6.63851 1.76001 6.22403 1.76001H5.47344C4.22987 1.76001 3.22168 2.7682 3.22168 4.01177V7.01413C3.22363 8.73538 4.07105 10.346 5.48846 11.3225C6.84417 12.5177 7.65225 14.2153 7.72521 16.0212C7.72521 18.923 10.0776 21.2753 12.9793 21.2753C15.8811 21.2753 18.2334 18.923 18.2334 16.0212V15.1655C19.839 14.751 20.8044 13.1134 20.3899 11.5079C19.9753 9.90239 18.3378 8.93699 16.7323 9.35146C15.1268 9.76608 14.1614 11.4036 14.5758 13.0091C14.8489 14.0667 15.6747 14.8925 16.7323 15.1655V16.0212C16.7323 18.0939 15.052 19.7741 12.9793 19.7741C10.9067 19.7741 9.22639 18.0939 9.22639 16.0212C9.3031 14.213 10.1169 12.515 11.4781 11.3225C12.8899 10.3425 13.7314 8.73267 13.7299 7.01413V4.01177C13.7299 2.7682 12.7217 1.76001 11.4781 1.76001H10.7276C10.3131 1.76001 9.97697 2.09612 9.97697 2.5106C9.97697 2.92507 10.3131 3.26119 10.7276 3.26119H11.4781C11.8926 3.26119 12.2287 3.5973 12.2287 4.01177V7.01413C12.2287 9.0868 10.5485 10.7671 8.4758 10.7671ZM17.4829 13.7694C16.6538 13.7694 15.9817 13.0973 15.9817 12.2682C15.9817 11.4391 16.6538 10.7671 17.4829 10.7671C18.312 10.7671 18.984 11.4391 18.984 12.2682C18.984 13.0973 18.312 13.7694 17.4829 13.7694Z" fill="black"/>
</svg>
