<svg width="21" height="21" viewBox="0 0 21 21" fill="none" xmlns="http://www.w3.org/2000/svg">
<path d="M15.042 19.4997C14.1003 19.4997 13.1087 19.2747 12.0837 18.8413C11.0837 18.4163 10.0753 17.833 9.09199 17.1247C8.11699 16.408 7.17533 15.608 6.28366 14.733C5.40033 13.8413 4.60033 12.8997 3.89199 11.933C3.17533 10.933 2.60033 9.93301 2.19199 8.96634C1.75866 7.93301 1.54199 6.93301 1.54199 5.99134C1.54199 5.34134 1.65866 4.72467 1.88366 4.14967C2.11699 3.55801 2.49199 3.00801 3.00033 2.53301C3.64199 1.89967 4.37533 1.58301 5.15866 1.58301C5.48366 1.58301 5.81699 1.65801 6.10033 1.79134C6.42533 1.94134 6.70033 2.16634 6.90033 2.46634L8.83366 5.19134C9.00866 5.43301 9.14199 5.66634 9.23366 5.89967C9.34199 6.14967 9.40033 6.39967 9.40033 6.64134C9.40033 6.95801 9.30866 7.26634 9.13366 7.55801C9.00866 7.78301 8.81699 8.02468 8.57533 8.26634L8.00866 8.85801C8.01699 8.88301 8.02533 8.89967 8.03366 8.91634C8.13366 9.09134 8.33366 9.39134 8.71699 9.84134C9.12533 10.308 9.50866 10.733 9.89199 11.1247C10.3837 11.608 10.792 11.9913 11.1753 12.308C11.6503 12.708 11.9587 12.908 12.142 12.9997L12.1253 13.0413L12.7337 12.4413C12.992 12.183 13.242 11.9913 13.4837 11.8663C13.942 11.583 14.5253 11.533 15.1087 11.7747C15.3253 11.8663 15.5587 11.9913 15.8087 12.1663L18.5753 14.133C18.8837 14.3413 19.1087 14.608 19.242 14.9247C19.367 15.2413 19.4253 15.533 19.4253 15.8247C19.4253 16.2247 19.3337 16.6247 19.1587 16.9997C18.9837 17.3747 18.767 17.6997 18.492 17.9997C18.017 18.5247 17.5003 18.8997 16.9003 19.1413C16.3253 19.3747 15.7003 19.4997 15.042 19.4997ZM5.15866 2.83301C4.70033 2.83301 4.27533 3.03301 3.86699 3.43301C3.48366 3.79134 3.21699 4.18301 3.05033 4.60801C2.87533 5.04134 2.79199 5.49967 2.79199 5.99134C2.79199 6.76634 2.97533 7.60801 3.34199 8.47468C3.71699 9.35801 4.24199 10.2747 4.90866 11.1913C5.57533 12.108 6.33366 12.9997 7.16699 13.8413C8.00033 14.6663 8.90033 15.433 9.82533 16.108C10.7253 16.7663 11.6503 17.2997 12.567 17.683C13.992 18.2913 15.3253 18.433 16.4253 17.9747C16.8503 17.7997 17.2253 17.533 17.567 17.1497C17.7587 16.9413 17.9087 16.7163 18.0337 16.4497C18.1337 16.2413 18.1837 16.0247 18.1837 15.808C18.1837 15.6747 18.1587 15.5413 18.092 15.3913C18.067 15.3413 18.017 15.2497 17.8587 15.1413L15.092 13.1747C14.9253 13.058 14.7753 12.9747 14.6337 12.9163C14.4503 12.8413 14.3753 12.7663 14.092 12.9413C13.9253 13.0247 13.7753 13.1497 13.6087 13.3163L12.9753 13.9413C12.6503 14.258 12.1503 14.333 11.767 14.1913L11.542 14.0913C11.2003 13.908 10.8003 13.6247 10.3587 13.2497C9.95866 12.908 9.52533 12.508 9.00033 11.9913C8.59199 11.5747 8.18366 11.133 7.75866 10.6413C7.36699 10.183 7.08366 9.79134 6.90866 9.46634L6.80866 9.21634C6.75866 9.02467 6.74199 8.91634 6.74199 8.79967C6.74199 8.49967 6.85033 8.23301 7.05866 8.02467L7.68366 7.37467C7.85033 7.20801 7.97533 7.04967 8.05866 6.90801C8.12533 6.79967 8.15033 6.70801 8.15033 6.62467C8.15033 6.55801 8.12533 6.45801 8.08366 6.35801C8.02533 6.22467 7.93366 6.07467 7.81699 5.91634L5.88366 3.18301C5.80033 3.06634 5.70033 2.98301 5.57533 2.92467C5.44199 2.86634 5.30033 2.83301 5.15866 2.83301ZM12.1253 13.0497L11.992 13.6163L12.217 13.033C12.1753 13.0247 12.142 13.033 12.1253 13.0497Z" fill="#222222"/>
<path d="M15.9167 8.66618C15.575 8.66618 15.2917 8.38285 15.2917 8.04118C15.2917 7.74118 14.9917 7.11618 14.4917 6.58285C14 6.05785 13.4583 5.74951 13 5.74951C12.6583 5.74951 12.375 5.46618 12.375 5.12451C12.375 4.78285 12.6583 4.49951 13 4.49951C13.8083 4.49951 14.6583 4.93284 15.4 5.72451C16.0917 6.46618 16.5417 7.37451 16.5417 8.04118C16.5417 8.38285 16.2583 8.66618 15.9167 8.66618Z" fill="#222222"/>
<path d="M18.8333 8.66634C18.4917 8.66634 18.2083 8.38301 18.2083 8.04134C18.2083 5.16634 15.875 2.83301 13 2.83301C12.6583 2.83301 12.375 2.54967 12.375 2.20801C12.375 1.86634 12.6583 1.58301 13 1.58301C16.5583 1.58301 19.4583 4.48301 19.4583 8.04134C19.4583 8.38301 19.175 8.66634 18.8333 8.66634Z" fill="#222222"/>
</svg>
