<svg width="19" height="20" viewBox="0 0 19 20" fill="none" xmlns="http://www.w3.org/2000/svg">
<g clip-path="url(#clip0_4066_19477)">
<path d="M11.3235 10.5754H10.6846C10.4804 10.5758 10.3142 10.4105 10.3138 10.2063C10.3138 10.2059 10.3138 10.205 10.3138 10.2045V9.56565C10.3142 9.36147 10.1489 9.19526 9.94473 9.19483C9.94429 9.19483 9.94338 9.19483 9.94294 9.19483H8.97791C8.77374 9.19439 8.60753 9.35968 8.60709 9.56385V9.56565V10.2045C8.60753 10.4087 8.44224 10.5749 8.23806 10.5754C8.23762 10.5754 8.23671 10.5754 8.23627 10.5754H7.59739C7.39321 10.5749 7.227 10.7402 7.22656 10.9444V10.9462V11.9112C7.22612 12.1154 7.39141 12.2816 7.59559 12.282H7.59739H8.23627C8.44044 12.2816 8.60665 12.4469 8.60709 12.651V12.6528V13.2917C8.60665 13.4959 8.77194 13.6621 8.97612 13.6625H8.97791H9.94294C10.1471 13.663 10.3133 13.4977 10.3138 13.2935C10.3138 13.2931 10.3138 13.2922 10.3138 13.2917V12.6528C10.3133 12.4487 10.4786 12.2825 10.6828 12.282H10.6846H11.3235C11.5276 12.2825 11.6938 12.1172 11.6943 11.913C11.6943 11.9126 11.6943 11.9116 11.6943 11.9112V10.9462C11.6947 10.742 11.5294 10.5758 11.3253 10.5754C11.3248 10.5754 11.3239 10.5754 11.3235 10.5754Z" fill="black"/>
<path d="M17.9493 5.17357V4.7268C17.9493 4.23313 17.5494 3.83325 17.0557 3.83325H15.7154C15.2217 3.83325 14.8218 4.23309 14.8218 4.7268V5.17357H13.4989V3.83325C13.4989 2.59969 12.4986 1.59937 11.265 1.59937H7.6908C6.4586 1.60296 5.46048 2.60104 5.45692 3.83325V5.17357H4.09916V4.7268C4.09916 4.23313 3.69931 3.83325 3.2056 3.83325H1.86524C1.37157 3.83325 0.971684 4.23309 0.971684 4.7268V5.17357C0.47354 5.19145 0.0785648 5.5998 0.078125 6.09842V16.7586C0.0790046 17.2688 0.492744 17.6825 1.00295 17.6834H17.918C18.4282 17.6825 18.8419 17.2688 18.8428 16.7586V6.09842C18.8424 5.5998 18.4474 5.19145 17.9493 5.17357ZM6.7798 3.83325C6.77489 3.34448 7.16759 2.9446 7.65639 2.93969H7.67336H11.2476C11.7364 2.93477 12.1362 3.32748 12.1412 3.81628V3.83325V5.17357H6.7798V3.83325ZM9.46048 15.3557C7.29136 15.3557 5.5333 13.5976 5.5333 11.4285C5.5333 9.2594 7.29136 7.50131 9.46048 7.50131C11.6296 7.50131 13.3877 9.2594 13.3877 11.4285C13.3894 13.5958 11.634 15.3539 9.46671 15.3557C9.46451 15.3557 9.46271 15.3557 9.46048 15.3557Z" fill="black"/>
</g>
<defs>
<clipPath id="clip0_4066_19477">
<rect width="18.7647" height="18.7647" fill="white" transform="translate(0.078125 0.258789)"/>
</clipPath>
</defs>
</svg>
