<svg width="41" height="40" viewBox="0 0 41 40" fill="none" xmlns="http://www.w3.org/2000/svg">
<path fill-rule="evenodd" clip-rule="evenodd" d="M18.0802 6.66675H22.9199C23.0309 6.66673 23.1281 6.66672 23.2237 6.67035C24.7341 6.72763 26.1375 7.46511 27.0415 8.67652C27.0987 8.75319 27.1538 8.83321 27.2167 8.92457L27.2298 8.94357C27.3129 9.06432 27.33 9.08859 27.3444 9.10794C27.6458 9.51175 28.1136 9.75757 28.6171 9.77667C28.6412 9.77758 28.6709 9.77786 28.8175 9.77786L29.9549 9.77786C30.9604 9.77782 31.8277 9.77779 32.5386 9.84402C33.2907 9.9141 34.0345 10.0694 34.731 10.4855C35.4411 10.9097 36.0349 11.5035 36.4591 12.2136C36.8752 12.9101 37.0305 13.6539 37.1006 14.406C37.1668 15.1169 37.1668 15.9842 37.1667 16.9897L37.1667 25.1098C37.1668 26.5873 37.1669 27.8603 37.0298 28.8797C36.8829 29.9723 36.5517 31.0195 35.7023 31.869C34.8528 32.7184 33.8056 33.0496 32.713 33.1965C31.6936 33.3336 30.4206 33.3335 28.9431 33.3334H12.057C10.5795 33.3335 9.3065 33.3336 8.28706 33.1965C7.19454 33.0496 6.14729 32.7184 5.29785 31.869C4.44841 31.0195 4.11717 29.9723 3.97028 28.8797C3.83322 27.8603 3.8333 26.5873 3.83338 25.1098L3.83338 16.9897C3.83334 15.9842 3.83331 15.1169 3.89954 14.406C3.96962 13.6539 4.12491 12.9101 4.54102 12.2136C4.96523 11.5035 5.55899 10.9097 6.26909 10.4855C6.96561 10.0694 7.70938 9.9141 8.46155 9.84402C9.17243 9.77779 10.0397 9.77782 11.0452 9.77786L12.1826 9.77786C12.3293 9.77786 12.3589 9.77758 12.3831 9.77667C12.8865 9.75757 13.3543 9.51175 13.6557 9.10794C13.6701 9.08859 13.6872 9.06432 13.7703 8.94357L13.7834 8.92464C13.8463 8.83325 13.9014 8.75321 13.9586 8.67652C14.8626 7.46511 16.266 6.72763 17.7764 6.67035C17.872 6.66672 17.9692 6.66673 18.0802 6.66675ZM18.1032 10.0001C17.9566 10.0001 17.9269 10.0004 17.9028 10.0013C17.3993 10.0204 16.9315 10.2662 16.6302 10.67C16.6157 10.6894 16.5987 10.7136 16.5155 10.8344L16.5025 10.8533C16.4395 10.9447 16.3844 11.0247 16.3272 11.1014C15.4232 12.3128 14.0198 13.0503 12.5094 13.1076C12.4138 13.1112 12.3166 13.1112 12.2057 13.1112C12.1981 13.1112 12.1904 13.1112 12.1826 13.1112H11.1189C10.0189 13.1112 9.30845 13.1129 8.77077 13.163C8.25706 13.2108 8.07177 13.2914 7.97862 13.3471C7.74192 13.4885 7.544 13.6864 7.40259 13.9231C7.34695 14.0162 7.26636 14.2015 7.2185 14.7153C7.1684 15.2529 7.16672 15.9633 7.16672 17.0634V25.0001C7.16672 26.6186 7.17026 27.6647 7.27389 28.4356C7.37108 29.1585 7.528 29.3851 7.65487 29.5119C7.78175 29.6388 8.00832 29.7957 8.73122 29.8929C9.50207 29.9965 10.5483 30.0001 12.1667 30.0001H28.8334C30.4519 30.0001 31.498 29.9965 32.2689 29.8929C32.9918 29.7957 33.2184 29.6388 33.3452 29.5119C33.4721 29.3851 33.629 29.1585 33.7262 28.4356C33.8298 27.6647 33.8334 26.6186 33.8334 25.0001V17.0634C33.8334 15.9633 33.8317 15.2529 33.7816 14.7153C33.7337 14.2015 33.6532 14.0162 33.5975 13.9231C33.4561 13.6864 33.2582 13.4885 33.0215 13.3471C32.9283 13.2914 32.743 13.2108 32.2293 13.163C31.6917 13.1129 30.9812 13.1112 29.8812 13.1112L28.7944 13.1112C28.6835 13.1112 28.5863 13.1112 28.4907 13.1076C26.9803 13.0503 25.5769 12.3128 24.6729 11.1014C24.6157 11.0247 24.5605 10.9447 24.4976 10.8532L24.4846 10.8344C24.4014 10.7136 24.3844 10.6894 24.3699 10.67C24.0686 10.2662 23.6008 10.0204 23.0973 10.0013C23.0732 10.0004 23.0435 10.0001 22.8969 10.0001H18.1032Z" fill="#00B427"/>
<path fill-rule="evenodd" clip-rule="evenodd" d="M20.5001 17.3809C18.5277 17.3809 16.9287 18.9799 16.9287 20.9524C16.9287 22.9248 18.5277 24.5238 20.5001 24.5238C22.4725 24.5238 24.0715 22.9248 24.0715 20.9524C24.0715 18.9799 22.4725 17.3809 20.5001 17.3809ZM13.5953 20.9524C13.5953 17.139 16.6867 14.0476 20.5001 14.0476C24.3135 14.0476 27.4049 17.139 27.4049 20.9524C27.4049 24.7658 24.3135 27.8571 20.5001 27.8571C16.6867 27.8571 13.5953 24.7658 13.5953 20.9524Z" fill="#00B427"/>
<path d="M28.1191 16.6667C28.1191 16.1408 28.5455 15.7144 29.0715 15.7144C29.5975 15.7144 30.0239 16.1408 30.0239 16.6667C30.0239 17.1927 29.5975 17.6191 29.0715 17.6191C28.5455 17.6191 28.1191 17.1927 28.1191 16.6667Z" fill="#00B427"/>
</svg>
