<svg width="23" height="23" viewBox="0 0 23 23" fill="none" xmlns="http://www.w3.org/2000/svg">
<g clip-path="url(#clip0_4066_19457)">
<path d="M19.6209 6.26601C19.4492 5.89737 19.216 5.56066 18.9313 5.27031L15.6536 1.99258C14.9903 1.33819 14.0978 0.968558 13.1661 0.962402H6.59162C5.65883 0.96352 4.76457 1.33456 4.10499 1.99415C3.4454 2.65373 3.07436 3.54799 3.07324 4.48078V18.5543C3.07436 19.4871 3.4454 20.3814 4.10499 21.041C4.76457 21.7005 5.65883 22.0716 6.59162 22.0727H16.4431C17.3759 22.0716 18.2702 21.7005 18.9297 21.041C19.5893 20.3814 19.9604 19.4871 19.9615 18.5543V7.75781C19.958 7.24166 19.8418 6.73251 19.6209 6.26601ZM17.5591 5.88814H15.7394C15.5528 5.88814 15.3738 5.814 15.2418 5.68204C15.1099 5.55007 15.0357 5.37109 15.0357 5.18446V3.36475L17.5591 5.88814ZM18.5541 18.5543C18.5541 19.1142 18.3317 19.6511 17.9358 20.047C17.5399 20.4429 17.003 20.6653 16.4431 20.6653H6.59162C6.03174 20.6653 5.4948 20.4429 5.0989 20.047C4.70301 19.6511 4.4806 19.1142 4.4806 18.5543V4.48078C4.4806 3.9209 4.70301 3.38396 5.0989 2.98806C5.4948 2.59217 6.03174 2.36976 6.59162 2.36976H13.1661C13.3218 2.37114 13.4769 2.39002 13.6284 2.42605V5.18446C13.6284 5.74434 13.8508 6.28129 14.2467 6.67718C14.6426 7.07308 15.1795 7.29549 15.7394 7.29549H18.4978C18.5339 7.447 18.5527 7.60208 18.5541 7.75781V18.5543Z" fill="white"/>
<path d="M14.3321 11.5176H12.2211V9.40656C12.2211 9.21993 12.1469 9.04095 12.015 8.90898C11.883 8.77702 11.704 8.70288 11.5174 8.70288C11.3308 8.70288 11.1518 8.77702 11.0198 8.90898C10.8879 9.04095 10.8137 9.21993 10.8137 9.40656V11.5176H8.7027C8.51607 11.5176 8.33709 11.5917 8.20513 11.7237C8.07316 11.8557 7.99902 12.0346 7.99902 12.2213C7.99902 12.4079 8.07316 12.5869 8.20513 12.7188C8.33709 12.8508 8.51607 12.9249 8.7027 12.9249H10.8137V15.036C10.8137 15.2226 10.8879 15.4016 11.0198 15.5335C11.1518 15.6655 11.3308 15.7396 11.5174 15.7396C11.704 15.7396 11.883 15.6655 12.015 15.5335C12.1469 15.4016 12.2211 15.2226 12.2211 15.036V12.9249H14.3321C14.5187 12.9249 14.6977 12.8508 14.8297 12.7188C14.9617 12.5869 15.0358 12.4079 15.0358 12.2213C15.0358 12.0346 14.9617 11.8557 14.8297 11.7237C14.6977 11.5917 14.5187 11.5176 14.3321 11.5176Z" fill="white"/>
</g>
<defs>
<clipPath id="clip0_4066_19457">
<rect width="22.5176" height="22.5176" fill="white" transform="translate(0.258789 0.258789)"/>
</clipPath>
</defs>
</svg>
