<svg width="21" height="21" viewBox="0 0 21 21" fill="none" xmlns="http://www.w3.org/2000/svg">
<path d="M9.78265 2.45307C10.0131 1.98613 10.1284 1.75266 10.2848 1.67807C10.4209 1.61317 10.5791 1.61317 10.7152 1.67807C10.8717 1.75266 10.9869 1.98613 11.2174 2.45307L13.4041 6.88304C13.4721 7.02089 13.5061 7.08982 13.5558 7.14333C13.5999 7.19071 13.6527 7.22911 13.7113 7.25638C13.7776 7.28718 13.8536 7.2983 14.0057 7.32053L18.897 8.03546C19.4121 8.11075 19.6696 8.14839 19.7888 8.27419C19.8925 8.38365 19.9412 8.53405 19.9215 8.68353C19.8988 8.85533 19.7124 9.03694 19.3395 9.40014L15.8014 12.8462C15.6912 12.9536 15.636 13.0073 15.6004 13.0712C15.5689 13.1278 15.5487 13.19 15.5409 13.2543C15.5321 13.3269 15.5451 13.4027 15.5711 13.5545L16.406 18.4219C16.494 18.9352 16.538 19.1919 16.4553 19.3443C16.3833 19.4768 16.2554 19.5697 16.1071 19.5972C15.9366 19.6288 15.7061 19.5076 15.2451 19.2652L10.8724 16.9656C10.7361 16.8939 10.668 16.8581 10.5962 16.844C10.5327 16.8316 10.4673 16.8316 10.4038 16.844C10.332 16.8581 10.2639 16.8939 10.1277 16.9656L5.75492 19.2652C5.29392 19.5076 5.06341 19.6288 4.89297 19.5972C4.74468 19.5697 4.61672 19.4768 4.54474 19.3443C4.462 19.1919 4.50603 18.9352 4.59407 18.4219L5.42889 13.5545C5.45491 13.4027 5.46793 13.3269 5.45912 13.2543C5.45132 13.19 5.43111 13.1278 5.39961 13.0712C5.36402 13.0073 5.30888 12.9536 5.19859 12.8462L1.66056 9.40014C1.28766 9.03694 1.10121 8.85533 1.07853 8.68353C1.05879 8.53405 1.10755 8.38365 1.21125 8.27419C1.33044 8.14839 1.58797 8.11075 2.10304 8.03546L6.99431 7.32053C7.14642 7.2983 7.22248 7.28718 7.28872 7.25638C7.34736 7.22911 7.40016 7.19071 7.44419 7.14333C7.49391 7.08982 7.52793 7.02089 7.59597 6.88304L9.78265 2.45307Z" stroke="#D1D80D" stroke-width="2" stroke-linecap="round" stroke-linejoin="round"/>
</svg>
