<svg width="25" height="24" viewBox="0 0 25 24" fill="none" xmlns="http://www.w3.org/2000/svg">
<path fill-rule="evenodd" clip-rule="evenodd" d="M8.5 1.24951C8.91421 1.24951 9.25 1.5853 9.25 1.99951V3.24951H15.75V1.99951C15.75 1.5853 16.0858 1.24951 16.5 1.24951C16.9142 1.24951 17.25 1.5853 17.25 1.99951V3.24998C17.8296 3.25163 18.3183 3.25912 18.7315 3.29288C19.2781 3.33754 19.7582 3.4319 20.2025 3.65824C20.9081 4.01776 21.4817 4.59144 21.8413 5.29705C22.0676 5.74127 22.162 6.22141 22.2066 6.76804C22.25 7.29895 22.25 7.95456 22.25 8.76739V17.2316C22.25 18.0445 22.25 18.7001 22.2066 19.231C22.162 19.7776 22.0676 20.2578 21.8413 20.702C21.4817 21.4076 20.9081 21.9813 20.2025 22.3408C19.7582 22.5671 19.2781 22.6615 18.7315 22.7061C18.2006 22.7495 17.545 22.7495 16.7321 22.7495H8.26788C7.45505 22.7495 6.79944 22.7495 6.26853 22.7061C5.7219 22.6615 5.24175 22.5671 4.79754 22.3408C4.09193 21.9813 3.51825 21.4076 3.15873 20.702C2.93239 20.2578 2.83803 19.7776 2.79336 19.231C2.74999 18.7001 2.74999 18.0445 2.75 17.2316V8.76741C2.74999 7.95457 2.74999 7.29895 2.79336 6.76804C2.83803 6.22141 2.93239 5.74127 3.15873 5.29705C3.51825 4.59144 4.09193 4.01776 4.79754 3.65824C5.24175 3.4319 5.7219 3.33754 6.26853 3.29288C6.68171 3.25912 7.17043 3.25163 7.75 3.24998V1.99951C7.75 1.5853 8.08579 1.24951 8.5 1.24951ZM7.75 4.75005C7.18053 4.75176 6.74665 4.75881 6.39068 4.78789C5.9368 4.82498 5.67604 4.89411 5.47852 4.99475C5.05516 5.21046 4.71095 5.55467 4.49524 5.97803C4.3946 6.17555 4.32547 6.43632 4.28838 6.89019C4.25058 7.35282 4.25 7.94706 4.25 8.79951V9.24951H20.75V8.79951C20.75 7.94706 20.7494 7.35282 20.7116 6.89019C20.6745 6.43632 20.6054 6.17555 20.5048 5.97803C20.289 5.55467 19.9448 5.21046 19.5215 4.99475C19.324 4.89411 19.0632 4.82498 18.6093 4.78789C18.2534 4.75881 17.8195 4.75176 17.25 4.75005V5.99951C17.25 6.41373 16.9142 6.74951 16.5 6.74951C16.0858 6.74951 15.75 6.41373 15.75 5.99951V4.74951H9.25V5.99951C9.25 6.41373 8.91421 6.74951 8.5 6.74951C8.08579 6.74951 7.75 6.41373 7.75 5.99951V4.75005ZM20.75 10.7495H4.25V17.1995C4.25 18.052 4.25058 18.6462 4.28838 19.1088C4.32547 19.5627 4.3946 19.8235 4.49524 20.021C4.71095 20.4444 5.05516 20.7886 5.47852 21.0043C5.67604 21.1049 5.9368 21.174 6.39068 21.2111C6.85331 21.2489 7.44755 21.2495 8.3 21.2495H16.7C17.5525 21.2495 18.1467 21.2489 18.6093 21.2111C19.0632 21.174 19.324 21.1049 19.5215 21.0043C19.9448 20.7886 20.289 20.4444 20.5048 20.021C20.6054 19.8235 20.6745 19.5627 20.7116 19.1088C20.7494 18.6462 20.75 18.052 20.75 17.1995V10.7495Z" fill="#323232"/>
</svg>
