<svg width="101" height="100" viewBox="0 0 101 100" fill="none" xmlns="http://www.w3.org/2000/svg">
<path fill-rule="evenodd" clip-rule="evenodd" d="M81.4229 38.4641H23.6104C22.3666 38.4641 21.1744 38.9579 20.2947 39.8375C19.4166 40.7157 18.9229 41.9079 18.9229 43.1516V52.5266H81.4229V38.4641Z" fill="url(#paint0_linear_3927_4608)"/>
<path fill-rule="evenodd" clip-rule="evenodd" d="M18.9229 44.2234H81.4229V47.1343H18.9229V44.2234Z" fill="url(#paint1_linear_3927_4608)"/>
<path fill-rule="evenodd" clip-rule="evenodd" d="M81.4234 37.0249C81.4234 35.7827 80.9297 34.5905 80.05 33.7108C79.1703 32.8327 77.9781 32.3374 76.7359 32.3374C71.1406 32.3374 61.9234 32.3374 56.9891 32.3374C54.9781 32.3374 53.1922 33.6202 52.5484 35.5249C51.6453 38.2015 50.5 41.589 50.5 41.589H81.4234V37.0249Z" fill="url(#paint2_linear_3927_4608)"/>
<path fill-rule="evenodd" clip-rule="evenodd" d="M85.3108 53.4907C85.592 51.6875 85.0701 49.85 83.8826 48.4625C82.6951 47.075 80.9608 46.2766 79.1342 46.2766C65.3514 46.2766 35.6483 46.2766 21.8654 46.2766C20.0389 46.2766 18.3045 47.075 17.117 48.4625C15.9295 49.85 15.4076 51.6875 15.6889 53.4907C17.2795 63.6657 20.142 81.9875 21.5483 90.9907C22.0248 94.0344 24.6451 96.2766 27.7248 96.2766H73.2748C76.3545 96.2766 78.9748 94.0344 79.4514 90.9907C80.8576 81.9875 83.7201 63.6657 85.3108 53.4907Z" fill="url(#paint3_linear_3927_4608)"/>
<path fill-rule="evenodd" clip-rule="evenodd" d="M15.6889 53.4907L16.4904 58.6157C16.2076 56.811 16.8279 54.9735 18.0154 53.586C19.2029 52.1985 20.9373 51.4 22.7639 51.4H78.2358C80.0623 51.4 81.7967 52.1985 82.9842 53.586C84.1717 54.9735 84.792 56.811 84.5092 58.6157L85.3108 53.4907C85.592 51.6875 85.0701 49.85 83.8826 48.4625C82.6951 47.075 80.9608 46.2766 79.1342 46.2766C65.3514 46.2766 35.6483 46.2766 21.8654 46.2766C20.0389 46.2766 18.3045 47.075 17.117 48.4625C15.9295 49.85 15.4076 51.6875 15.6889 53.4907Z" fill="#E9F3FC"/>
<path fill-rule="evenodd" clip-rule="evenodd" d="M46.9297 83.5374C46.9297 81.8124 45.5312 80.4124 43.8047 80.4124C40.3375 80.4124 34.7734 80.4124 31.3047 80.4124C29.5797 80.4124 28.1797 81.8124 28.1797 83.5374V86.6624C28.1797 88.3889 29.5797 89.7874 31.3047 89.7874H43.8047C45.5312 89.7874 46.9297 88.3889 46.9297 86.6624C46.9297 85.6577 46.9297 84.5436 46.9297 83.5374Z" fill="#4673B7"/>
<path fill-rule="evenodd" clip-rule="evenodd" d="M37.3072 40.3531C37.2384 39.9125 37.2056 39.4781 37.2072 39.05C37.2103 38.189 36.5134 37.4859 35.6509 37.4812C34.7884 37.4781 34.0853 38.175 34.0822 39.0375C34.0791 39.6281 34.1244 40.2296 34.2212 40.839C34.3541 41.6906 35.1556 42.2734 36.0072 42.139C36.8587 42.0062 37.4416 41.2046 37.3072 40.3531Z" fill="#4673B7"/>
<path fill-rule="evenodd" clip-rule="evenodd" d="M38.9476 34.3639C39.2539 34.0045 39.5976 33.667 39.9789 33.3514C40.6429 32.8014 40.7367 31.817 40.1867 31.1514C39.6367 30.4873 38.6523 30.3936 37.9867 30.9436C37.4633 31.3764 36.9898 31.8436 36.5679 32.3373C36.0086 32.9951 36.0883 33.9811 36.7445 34.5405C37.4008 35.0998 38.3883 35.0201 38.9476 34.3639Z" fill="#4673B7"/>
<path fill-rule="evenodd" clip-rule="evenodd" d="M44.8371 31.0966C45.4684 30.9544 46.134 30.8482 46.8324 30.7779C47.6902 30.6919 48.3168 29.9263 48.2309 29.0685C48.1449 28.2107 47.3793 27.5826 46.5215 27.6685C45.6934 27.7513 44.9027 27.8794 44.1527 28.0482C43.3105 28.2373 42.7809 29.0732 42.9699 29.9138C43.159 30.756 43.9949 31.2857 44.8371 31.0966Z" fill="#4673B7"/>
<path fill-rule="evenodd" clip-rule="evenodd" d="M52.8349 30.7716C53.788 30.7966 54.6927 30.7888 55.5552 30.7529C56.4161 30.717 57.0865 29.9873 57.0505 29.1263C57.0146 28.2654 56.2864 27.5951 55.4239 27.631C54.6286 27.6638 53.7927 27.6701 52.9146 27.6482C52.0521 27.6263 51.3349 28.3091 51.313 29.1701C51.2911 30.0326 51.9739 30.7498 52.8349 30.7716Z" fill="#4673B7"/>
<path fill-rule="evenodd" clip-rule="evenodd" d="M62.012 29.7732C63.0198 29.481 63.9292 29.1326 64.7448 28.7419C65.5214 28.3685 65.8495 27.4341 65.4761 26.656C65.1026 25.8794 64.1683 25.5513 63.3917 25.9247C62.7198 26.2466 61.9714 26.531 61.1401 26.7732C60.312 27.0138 59.8354 27.881 60.0761 28.7091C60.3167 29.5372 61.1839 30.0138 62.012 29.7732Z" fill="#4673B7"/>
<path fill-rule="evenodd" clip-rule="evenodd" d="M69.4403 24.9046C70.1872 23.839 70.6747 22.703 70.9434 21.5546C71.1403 20.714 70.6169 19.8733 69.7778 19.6765C68.9387 19.4812 68.0966 20.003 67.9012 20.8421C67.7184 21.6202 67.3872 22.389 66.8809 23.1108C66.3872 23.8171 66.5575 24.7921 67.2637 25.2874C67.97 25.7827 68.9466 25.6108 69.4403 24.9046Z" fill="#4673B7"/>
<path fill-rule="evenodd" clip-rule="evenodd" d="M70.3667 15.2858C69.6745 13.6717 68.5901 12.3123 67.3026 11.4248C66.5917 10.9342 65.6183 11.1139 65.1292 11.8233C64.6386 12.5327 64.8183 13.5077 65.5276 13.9967C66.3636 14.5733 67.0464 15.4717 67.4948 16.5186C67.8354 17.3123 68.7558 17.6795 69.5479 17.3389C70.3401 16.9983 70.7073 16.0795 70.3667 15.2858Z" fill="#4673B7"/>
<path fill-rule="evenodd" clip-rule="evenodd" d="M50.3291 10.6734C52.0197 1.09993 66.6713 1.71868 58.1416 10.6734H50.3291Z" fill="url(#paint4_linear_3927_4608)"/>
<path fill-rule="evenodd" clip-rule="evenodd" d="M50.3291 13.0984C52.0197 22.6703 66.6713 22.0531 58.1416 13.0984H50.3291Z" fill="url(#paint5_linear_3927_4608)"/>
<path fill-rule="evenodd" clip-rule="evenodd" d="M50.1885 13.4641H60.651C61.5135 13.4641 62.2135 12.7641 62.2135 11.9016C62.2135 11.0391 61.5135 10.3391 60.651 10.3391H50.1885C49.3275 10.3391 48.626 11.0391 48.626 11.9016C48.626 12.7641 49.3275 13.4641 50.1885 13.4641Z" fill="#4673B7"/>
<defs>
<linearGradient id="paint0_linear_3927_4608" x1="18.9229" y1="42.4329" x2="81.4229" y2="42.4329" gradientUnits="userSpaceOnUse">
<stop stop-color="#CADCF0"/>
<stop offset="1" stop-color="#A4BBDB"/>
</linearGradient>
<linearGradient id="paint1_linear_3927_4608" x1="18.9229" y1="45.6781" x2="81.4229" y2="45.6781" gradientUnits="userSpaceOnUse">
<stop stop-color="#A4BBDB"/>
<stop offset="1" stop-color="#8DA3BE"/>
</linearGradient>
<linearGradient id="paint2_linear_3927_4608" x1="19.25" y1="42.4327" x2="81.75" y2="42.4327" gradientUnits="userSpaceOnUse">
<stop stop-color="#CADCF0"/>
<stop offset="1" stop-color="#A4BBDB"/>
</linearGradient>
<linearGradient id="paint3_linear_3927_4608" x1="15.6154" y1="71.2766" x2="85.3858" y2="71.2766" gradientUnits="userSpaceOnUse">
<stop stop-color="#E9F3FC"/>
<stop offset="1" stop-color="#CADCF0"/>
</linearGradient>
<linearGradient id="paint4_linear_3927_4608" x1="50.3291" y1="7.19837" x2="60.79" y2="7.19837" gradientUnits="userSpaceOnUse">
<stop stop-color="#E9F3FC"/>
<stop offset="1" stop-color="#CADCF0"/>
</linearGradient>
<linearGradient id="paint5_linear_3927_4608" x1="50.3291" y1="16.5734" x2="60.79" y2="16.5734" gradientUnits="userSpaceOnUse">
<stop stop-color="#E9F3FC"/>
<stop offset="1" stop-color="#CADCF0"/>
</linearGradient>
</defs>
</svg>
