<svg width="21" height="21" viewBox="0 0 21 21" fill="black" xmlns="http://www.w3.org/2000/svg">
<path fill-rule="evenodd" clip-rule="evenodd" d="M10.4362 2.02514C10.4296 2.02784 10.4056 2.03912 10.3539 2.07365C10.2695 2.13003 10.1623 2.21283 9.97823 2.35601L3.19592 7.63114C2.70902 8.00984 2.58279 8.11627 2.49509 8.23484C2.40468 8.35708 2.33733 8.4948 2.29634 8.64121C2.25659 8.78323 2.25008 8.94822 2.25008 9.56505V16.8C2.25008 17.3724 2.25066 17.7566 2.27483 18.0525C2.29829 18.3396 2.34017 18.4769 2.38632 18.5675C2.50616 18.8027 2.69739 18.9939 2.93259 19.1137C3.02315 19.1599 3.16043 19.2018 3.44755 19.2252C3.74343 19.2494 4.12765 19.25 4.70008 19.25H6.70008C6.71771 19.25 6.73433 19.25 6.75006 19.25C6.75007 19.2342 6.75008 19.2176 6.75008 19.2L6.75007 12.5738C6.75006 12.3163 6.75004 12.0798 6.76619 11.8821C6.7836 11.669 6.82347 11.4358 6.94081 11.2055C7.10859 10.8762 7.37631 10.6085 7.70559 10.4407C7.9359 10.3234 8.16907 10.2835 8.3822 10.2661C8.57989 10.2499 8.81636 10.25 9.07384 10.25H11.9263C12.1838 10.25 12.4203 10.2499 12.6179 10.2661C12.8311 10.2835 13.0643 10.3234 13.2946 10.4407C13.6238 10.6085 13.8916 10.8762 14.0593 11.2055C14.1767 11.4358 14.2165 11.669 14.234 11.8821C14.2501 12.0798 14.2501 12.3163 14.2501 12.5738L14.2501 19.2C14.2501 19.2176 14.2501 19.2342 14.2501 19.25C14.2658 19.25 14.2824 19.25 14.3001 19.25H16.3001C16.8725 19.25 17.2567 19.2494 17.5526 19.2252C17.8397 19.2018 17.977 19.1599 18.0676 19.1137C18.3028 18.9939 18.494 18.8027 18.6138 18.5675C18.66 18.4769 18.7019 18.3396 18.7253 18.0525C18.7495 17.7566 18.7501 17.3724 18.7501 16.8V9.56505C18.7501 8.94822 18.7436 8.78323 18.7038 8.64121C18.6628 8.49479 18.5955 8.35708 18.5051 8.23484C18.4174 8.11627 18.2911 8.00984 17.8042 7.63114L11.0219 2.35601C10.8378 2.21283 10.7306 2.13003 10.6463 2.07365C10.5946 2.03912 10.5705 2.02784 10.5639 2.02514C10.5221 2.01408 10.4781 2.01408 10.4362 2.02514ZM10.562 2.02442C10.562 2.02439 10.5628 2.02468 10.5639 2.02514L10.562 2.02442ZM6.7444 19.4801C6.7444 19.4801 6.74445 19.4797 6.74459 19.4789L6.7444 19.4801ZM10.4362 2.02514C10.4374 2.02468 10.4382 2.02439 10.4382 2.02442L10.4362 2.02514ZM10.0427 0.577667C10.3422 0.496572 10.6579 0.496572 10.9574 0.577667C11.3027 0.671152 11.5962 0.900798 11.872 1.11667C11.8957 1.13525 11.9193 1.15371 11.9428 1.17198L18.7251 6.44711C18.748 6.46486 18.7705 6.48237 18.7928 6.49967C19.1803 6.80064 19.4851 7.03739 19.711 7.34287C19.9099 7.6118 20.0581 7.91477 20.1483 8.23689C20.2507 8.60278 20.2504 8.98875 20.2501 9.47942C20.2501 9.50761 20.2501 9.53615 20.2501 9.56505V16.8304C20.2501 17.3646 20.2501 17.8104 20.2203 18.1747C20.1893 18.5545 20.1222 18.9112 19.9503 19.2485C19.6867 19.7659 19.266 20.1866 18.7485 20.4503C18.4113 20.6221 18.0546 20.6892 17.6747 20.7202C17.3105 20.75 16.8647 20.75 16.3305 20.75L14.2798 20.75C14.1577 20.75 14.0252 20.75 13.9106 20.7407C13.7808 20.7301 13.6094 20.7038 13.4326 20.6137C13.1974 20.4939 13.0062 20.3027 12.8863 20.0675C12.7962 19.8906 12.77 19.7192 12.7594 19.5895C12.75 19.4748 12.75 19.3424 12.7501 19.2202L12.7501 12.6C12.7501 12.3076 12.7495 12.1334 12.7389 12.0043C12.7325 11.9255 12.724 11.8923 12.7213 11.8834C12.6977 11.8388 12.6613 11.8023 12.6166 11.7788C12.6077 11.7761 12.5746 11.7676 12.4958 11.7611C12.3667 11.7506 12.1925 11.75 11.9001 11.75H9.10007C8.80767 11.75 8.63348 11.7506 8.50435 11.7611C8.42554 11.7676 8.39242 11.7761 8.38354 11.7788C8.3389 11.8023 8.30242 11.8388 8.2789 11.8834C8.27614 11.8923 8.26765 11.9255 8.26121 12.0043C8.25066 12.1334 8.25008 12.3076 8.25008 12.6L8.25008 19.2202C8.25011 19.3424 8.25014 19.4748 8.24077 19.5895C8.23017 19.7192 8.20393 19.8906 8.11383 20.0675C7.99399 20.3027 7.80277 20.4939 7.56756 20.6137C7.39073 20.7038 7.21931 20.7301 7.08955 20.7407C6.97491 20.75 6.84246 20.75 6.7203 20.75L4.66962 20.75C4.13548 20.75 3.68963 20.75 3.32541 20.7202C2.94552 20.6892 2.58886 20.6221 2.2516 20.4503C1.73415 20.1866 1.31346 19.7659 1.04981 19.2485C0.877963 18.9112 0.810852 18.5545 0.779814 18.1747C0.750055 17.8104 0.750064 17.3646 0.750075 16.8304L0.750075 9.56505C0.750075 9.53615 0.750056 9.5076 0.750037 9.4794C0.749706 8.98874 0.749446 8.60278 0.851863 8.23689C0.942027 7.91477 1.0902 7.6118 1.28911 7.34287C1.51505 7.03739 1.81987 6.80064 2.20738 6.49966C2.22965 6.48237 2.25219 6.46486 2.27501 6.44711L9.05731 1.17198C9.08081 1.15371 9.10441 1.13524 9.12814 1.11667C9.40399 0.900797 9.69745 0.671152 10.0427 0.577667ZM8.2798 11.8809C8.27981 11.8809 8.27964 11.8814 8.27925 11.8824L8.2798 11.8809ZM8.38095 11.7797C8.38091 11.7797 8.38138 11.7795 8.38244 11.7792L8.38095 11.7797ZM12.6192 11.7797C12.6192 11.7797 12.6186 11.7795 12.6177 11.7792L12.6192 11.7797ZM12.7203 11.8809C12.7204 11.8808 12.7206 11.8813 12.7209 11.8824L12.7203 11.8809Z" fill="#323232"/>
</svg>
