<svg width="18" height="22" viewBox="0 0 18 22" fill="none" xmlns="http://www.w3.org/2000/svg">
<path fill-rule="evenodd" clip-rule="evenodd" d="M0.25 9.32682C0.25 4.53297 4.17493 0.660156 9 0.660156C13.8251 0.660156 17.75 4.53297 17.75 9.32682C17.75 12.3084 16.0113 15.251 14.1686 17.393C13.236 18.477 12.2463 19.3922 11.3733 20.043C10.9374 20.3679 10.5186 20.636 10.1405 20.8264C9.78602 21.0049 9.38124 21.1602 9 21.1602C8.61876 21.1602 8.21398 21.0049 7.85954 20.8264C7.48144 20.636 7.06256 20.3679 6.62674 20.043C5.75371 19.3922 4.76395 18.477 3.83144 17.393C1.98872 15.251 0.25 12.3084 0.25 9.32682ZM9 11.9102C7.34315 11.9102 6 10.567 6 8.91016C6 7.2533 7.34315 5.91016 9 5.91016C10.6569 5.91016 12 7.2533 12 8.91016C12 10.567 10.6569 11.9102 9 11.9102Z" fill="#0A982F"/>
</svg>
