<svg width="265" height="298" viewBox="0 0 265 298" fill="none" xmlns="http://www.w3.org/2000/svg">
<path d="M79.518 213.708C110.419 199.017 203.828 143.136 228.248 115.802C223.73 82.0908 110.734 91.9955 89.4488 119.127C68.1638 146.258 48.3837 192.876 79.518 213.708Z" fill="#041A2B" stroke="#041A2B" stroke-width="0.709907" stroke-miterlimit="10"/>
<path d="M247.929 145.293H154.404V191.803H247.929V145.293Z" fill="#FFE3D4" stroke="#D1B2A1" stroke-width="0.709907" stroke-miterlimit="10"/>
<path d="M236.167 188.546H165.647C165.881 184.351 162.546 180.821 158.352 180.821H158.298V155.251H158.525C162.221 155.251 165.217 152.25 165.217 148.548H237.027C237.027 152.25 240.022 155.251 243.718 155.251H244.034V181.735L243.165 181.735C239.375 181.732 236.272 184.752 236.167 188.546Z" stroke="#D1B2A1" stroke-width="0.462646" stroke-miterlimit="10"/>
<path d="M201.166 179.48C207.195 179.48 212.082 174.586 212.082 168.548C212.082 162.51 207.195 157.615 201.166 157.615C195.137 157.615 190.25 162.51 190.25 168.548C190.25 174.586 195.137 179.48 201.166 179.48Z" stroke="#D1B2A1" stroke-width="0.462646" stroke-miterlimit="10"/>
<path d="M193.89 204.188L113.589 156.166L89.7796 196.099L170.08 244.122L193.89 204.188Z" fill="#FFE3D4" stroke="#D1B2A1" stroke-width="0.709907" stroke-miterlimit="10"/>
<path d="M161.653 235.276L101.106 199.068C103.454 195.587 102.399 190.844 98.797 188.689L98.751 188.662L111.84 166.707L112.036 166.824C115.209 168.722 119.317 167.683 121.212 164.506L182.867 201.376C180.972 204.554 182.009 208.668 185.181 210.566L185.453 210.728L171.895 233.467L171.15 233.021C167.897 231.073 163.686 232.072 161.653 235.276Z" stroke="#D1B2A1" stroke-width="0.462646" stroke-miterlimit="10"/>
<path d="M149.176 208.234C153.646 204.183 153.992 197.27 149.947 192.792C145.902 188.315 138.999 187.968 134.528 192.019C130.058 196.069 129.712 202.983 133.757 207.461C137.802 211.938 144.705 212.285 149.176 208.234Z" stroke="#D1B2A1" stroke-width="0.462646" stroke-miterlimit="10"/>
<path d="M261.962 195.581L169.628 180.659L162.249 226.58L254.583 241.502L261.962 195.581Z" fill="#FFE3D4" stroke="#D1B2A1" stroke-width="0.709907" stroke-miterlimit="10"/>
<path d="M243.461 236.391L173.839 225.152C174.736 221.048 172.006 217.031 167.864 216.362L167.811 216.354L171.874 191.109L172.099 191.145C175.747 191.734 179.182 189.25 179.77 185.595L250.665 197.039C250.076 200.694 252.558 204.134 256.207 204.722L256.518 204.773L252.31 230.92L251.453 230.781C247.711 230.174 244.168 232.661 243.461 236.391Z" stroke="#D1B2A1" stroke-width="0.462646" stroke-miterlimit="10"/>
<path d="M218.551 219.858C223.399 216.27 224.424 209.425 220.841 204.57C217.257 199.715 210.423 198.689 205.575 202.278C200.727 205.867 199.702 212.712 203.285 217.566C206.869 222.421 213.703 223.447 218.551 219.858Z" stroke="#D1B2A1" stroke-width="0.462646" stroke-miterlimit="10"/>
<path d="M127.049 193.716C121.142 190.409 119.03 182.931 122.332 177.014C125.634 171.097 133.101 168.982 139.009 172.289C144.917 175.597 147.028 183.075 143.726 188.991C140.423 194.908 132.957 197.023 127.049 193.716Z" fill="#F0A048" stroke="#CD802C" stroke-width="0.694005" stroke-miterlimit="10"/>
<path d="M127.503 190.945C123.122 187.888 122.046 181.854 125.098 177.467C128.15 173.08 134.176 172.002 138.556 175.059C142.936 178.116 144.013 184.15 140.961 188.537C137.908 192.924 131.883 194.002 127.503 190.945Z" stroke="#CD802C" stroke-width="0.412314" stroke-miterlimit="10"/>
<path d="M135.645 187.893L127.543 182.239L129.446 179.503L135.489 183.72L136.457 182.329L138.517 183.767L135.645 187.893Z" stroke="#8A561D" stroke-width="0.412314" stroke-miterlimit="10"/>
<path d="M206.14 244.109C211.017 239.409 211.166 231.639 206.473 226.755C201.78 221.871 194.022 221.721 189.145 226.421C184.268 231.121 184.119 238.891 188.812 243.775C193.505 248.66 201.263 248.809 206.14 244.109Z" fill="#F0A048" stroke="#CD802C" stroke-width="0.694005" stroke-miterlimit="10"/>
<path d="M204.721 241.852C208.355 237.935 208.131 231.81 204.219 228.17C200.308 224.53 194.192 224.755 190.557 228.672C186.923 232.589 187.148 238.715 191.059 242.355C194.97 245.995 201.087 245.77 204.721 241.852Z" stroke="#CD802C" stroke-width="0.412314" stroke-miterlimit="10"/>
<path d="M197.031 240.791L193.531 231.543L196.644 230.362L199.255 237.258L200.838 236.657L201.728 239.008L197.031 240.791Z" stroke="#8A561D" stroke-width="0.412314" stroke-miterlimit="10"/>
<path d="M213.893 203.416C220.586 202.41 225.197 196.161 224.193 189.458C223.189 182.755 216.949 178.136 210.256 179.142C203.563 180.148 198.951 186.398 199.956 193.101C200.96 199.804 207.2 204.422 213.893 203.416Z" fill="#F0A048" stroke="#CD802C" stroke-width="0.694005" stroke-miterlimit="10"/>
<path d="M204.62 185.128C208.014 181.001 214.106 180.41 218.228 183.808C222.35 187.207 222.939 193.308 219.546 197.436C216.152 201.564 210.06 202.155 205.938 198.756C201.817 195.358 201.227 189.256 204.62 185.128Z" stroke="#CD802C" stroke-width="0.412314" stroke-miterlimit="10"/>
<path d="M207.006 193.501L213.283 185.866L215.853 187.986L211.172 193.68L212.478 194.758L210.883 196.699L207.006 193.501Z" stroke="#8A561D" stroke-width="0.412314" stroke-miterlimit="10"/>
<path d="M227.272 291.028C233.857 289.462 237.928 282.847 236.365 276.251C234.801 269.656 228.195 265.579 221.61 267.145C215.025 268.71 210.954 275.326 212.517 281.922C214.081 288.517 220.686 292.594 227.272 291.028Z" fill="#F0A048" stroke="#CD802C" stroke-width="0.694005" stroke-miterlimit="10"/>
<path d="M230.411 286.667C234.597 283.348 235.305 277.26 231.992 273.067C228.679 268.875 222.599 268.166 218.413 271.484C214.227 274.803 213.519 280.891 216.833 285.084C220.146 289.276 226.225 289.985 230.411 286.667Z" stroke="#CD802C" stroke-width="0.412314" stroke-miterlimit="10"/>
<path d="M229.418 276.69L223.409 284.538L220.766 282.509L225.248 276.656L223.904 275.624L225.432 273.629L229.418 276.69Z" stroke="#8A561D" stroke-width="0.412314" stroke-miterlimit="10"/>
<path d="M152.557 287.28C156.082 281.494 154.257 273.941 148.479 270.411C142.702 266.88 135.161 268.708 131.635 274.494C128.11 280.28 129.935 287.833 135.713 291.363C141.49 294.894 149.031 293.066 152.557 287.28Z" fill="#F0A048" stroke="#CD802C" stroke-width="0.694005" stroke-miterlimit="10"/>
<path d="M149.291 287.339C152.859 283.362 152.533 277.241 148.562 273.667C144.591 270.093 138.479 270.42 134.91 274.397C131.342 278.374 131.668 284.495 135.639 288.069C139.61 291.642 145.722 291.316 149.291 287.339Z" stroke="#CD802C" stroke-width="0.412314" stroke-miterlimit="10"/>
<path d="M139.038 276.247L147.635 281.113L145.997 284.016L139.586 280.387L138.753 281.863L136.568 280.626L139.038 276.247Z" stroke="#8A561D" stroke-width="0.412314" stroke-miterlimit="10"/>
<path d="M225.368 127.384C229.618 130.394 233.103 134.479 235.409 139.153" stroke="#F0A048" stroke-width="0.709907" stroke-miterlimit="10"/>
<path d="M229.252 125.482C232.261 127.376 234.777 130.046 236.492 133.163" stroke="#F0A048" stroke-width="0.709907" stroke-miterlimit="10"/>
<path d="M118.436 227.836C119.706 237.676 123.979 247.105 130.535 254.542C130.71 254.044 130.532 253.443 130.115 253.121" stroke="#F0A048" stroke-width="0.709907" stroke-miterlimit="10"/>
<path d="M113.321 230.767C112.866 234.929 114.254 239.26 117.042 242.38" stroke="#F0A048" stroke-width="0.709907" stroke-miterlimit="10"/>
<path d="M259.432 282.355C262.243 274.484 261.954 265.55 258.64 257.878" stroke="#F0A048" stroke-width="0.709907" stroke-miterlimit="10"/>
<path d="M263.844 266.31C264.288 262.037 262.94 257.606 260.191 254.308" stroke="#F0A048" stroke-width="0.709907" stroke-miterlimit="10"/>
<path d="M226.979 116.124L84.7606 214.134C78.8454 218.21 70.7495 216.712 66.6786 210.788L7.27584 124.336C3.20492 118.411 4.70022 110.304 10.6154 106.227L152.833 8.21683C158.748 4.1403 166.844 5.63853 170.915 11.563L230.318 98.0141C234.39 103.939 232.894 112.047 226.979 116.124Z" fill="#1376F8" stroke="#1376F8" stroke-width="0.709907" stroke-miterlimit="10"/>
<path d="M52.9522 105.79L30.9658 120.943C27.7826 123.137 26.9771 127.498 29.1666 130.685L33.6303 137.18C35.8198 140.367 40.1752 141.171 43.3584 138.977L65.3447 123.824C68.528 121.63 69.3335 117.269 67.144 114.083L62.6803 107.587C60.4908 104.401 56.1354 103.596 52.9522 105.79Z" fill="white"/>
<path d="M33.2994 117.141L46.7164 136.667" stroke="#0A982F" stroke-width="0.694005" stroke-miterlimit="10"/>
<path d="M47.6362 107.261L61.0532 126.788" stroke="#0A982F" stroke-width="0.694005" stroke-miterlimit="10"/>
<path d="M40.5207 127.651L30.5829 134.499" stroke="#0A982F" stroke-width="0.694005" stroke-miterlimit="10"/>
<path d="M64.7951 110.922L54.8574 117.77" stroke="#0A982F" stroke-width="0.694005" stroke-miterlimit="10"/>
<g clip-path="url(#clip0_719_4077)">
<g filter="url(#filter0_b_719_4077)">
<path d="M105.091 57.4366C105.04 40.6637 118.596 27.0254 135.369 26.9746C152.142 26.9238 165.78 40.4798 165.831 57.2527C165.882 74.0257 152.326 87.664 135.553 87.7147C118.78 87.7655 105.142 74.2095 105.091 57.4366Z" fill="#569EFC" fill-opacity="0.55"/>
<path d="M105.632 57.435C105.582 40.9607 118.896 27.5652 135.371 27.5154C151.845 27.4655 165.24 40.7801 165.29 57.2544C165.34 73.7286 152.025 87.1241 135.551 87.1739C119.077 87.2238 105.681 73.9092 105.632 57.435Z" stroke="white" stroke-opacity="0.09" stroke-width="1.0816"/>
</g>
<g filter="url(#filter1_b_719_4077)">
<path d="M101.574 22.224C101.505 -0.564786 119.923 -19.0946 142.712 -19.1636C165.501 -19.2326 184.031 -0.814622 184.1 21.9741C184.169 44.7629 165.751 63.2927 142.962 63.3617C120.173 63.4307 101.643 45.0127 101.574 22.224Z" fill="#569EFC"/>
<path d="M102.013 22.2226C101.945 -0.32368 120.167 -18.6564 142.713 -18.7247C165.26 -18.7929 183.592 -0.570857 183.661 21.9755C183.729 44.5218 165.507 62.8545 142.96 62.9228C120.414 62.991 102.081 44.769 102.013 22.2226Z" stroke="white" stroke-opacity="0.32" stroke-width="0.877934"/>
</g>
</g>
<g clip-path="url(#clip1_719_4077)">
<g filter="url(#filter2_b_719_4077)">
<path d="M128.402 208.387C122.56 220.688 107.852 225.925 95.55 220.083C83.2483 214.242 78.0114 199.534 83.8531 187.232C89.6949 174.93 104.403 169.693 116.705 175.535C129.007 181.377 134.243 196.085 128.402 208.387Z" fill="#569EFC"/>
<path d="M127.614 208.013C121.979 219.88 107.791 224.931 95.9239 219.296C84.0569 213.661 79.0052 199.473 84.6404 187.606C90.2757 175.739 104.464 170.687 116.331 176.322C128.198 181.957 133.25 196.146 127.614 208.013Z" stroke="white" stroke-opacity="0.09" stroke-width="1.74312"/>
</g>
<g filter="url(#filter3_b_719_4077)">
<path d="M98.7969 213.376C92.7736 226.06 77.6082 231.46 64.9242 225.437C52.2401 219.413 46.8404 204.248 52.8637 191.564C58.887 178.88 74.0524 173.48 86.7365 179.503C99.4206 185.527 104.82 200.692 98.7969 213.376Z" fill="#569EFC"/>
<path d="M98.1578 213.073C92.3021 225.404 77.5588 230.653 65.2276 224.797C52.8965 218.942 47.6471 204.198 53.5028 191.867C59.3585 179.536 74.1019 174.287 86.433 180.142C98.7642 185.998 104.014 200.741 98.1578 213.073Z" stroke="white" stroke-opacity="0.32" stroke-width="1.41489"/>
</g>
</g>
<path d="M64.2419 177.716L78.7391 167.725" stroke="white" stroke-width="0.694005" stroke-miterlimit="10"/>
<path d="M66.4176 180.883L74.1864 175.529" stroke="white" stroke-width="0.694005" stroke-miterlimit="10"/>
<path d="M113.151 144.01L127.649 134.019" stroke="white" stroke-width="0.694005" stroke-miterlimit="10"/>
<path d="M115.327 147.177L123.097 141.823" stroke="white" stroke-width="0.694005" stroke-miterlimit="10"/>
<path d="M53.7976 156.196L58.6058 163.193L57.7593 163.777L53.5615 157.668L53.5206 157.696L52.5933 160.006L52.0017 159.146L52.9511 156.779L53.7976 156.196ZM60.6163 161.808L60.1937 161.193L60.7638 157.074C60.8311 156.591 60.8772 156.18 60.9022 155.841C60.9256 155.499 60.9128 155.202 60.864 154.951C60.8159 154.695 60.7182 154.461 60.5711 154.246C60.4021 154 60.1966 153.828 59.9546 153.73C59.7149 153.63 59.4601 153.601 59.1903 153.642C58.9205 153.684 58.6592 153.792 58.4067 153.966C58.1381 154.151 57.9421 154.368 57.8186 154.618C57.6957 154.864 57.6478 155.123 57.6747 155.397C57.7039 155.669 57.8101 155.938 57.9932 156.204L57.1877 156.76C56.9059 156.35 56.7531 155.925 56.7291 155.485C56.7051 155.045 56.7963 154.626 57.0028 154.229C57.2115 153.83 57.5195 153.49 57.9268 153.209C58.3364 152.927 58.7589 152.763 59.1941 152.718C59.6294 152.673 60.0379 152.736 60.4195 152.906C60.8012 153.076 61.1157 153.341 61.363 153.701C61.5399 153.958 61.6662 154.242 61.7419 154.552C61.8184 154.859 61.8461 155.241 61.8252 155.698C61.8049 156.152 61.7425 156.732 61.6378 157.438L61.2228 160.201L61.2603 160.256L64.5098 158.016L65.0263 158.768L60.6163 161.808ZM68.8638 156.264C68.4132 156.575 67.9584 156.774 67.4992 156.862C67.0424 156.949 66.6157 156.926 66.2193 156.793C65.8235 156.656 65.4905 156.411 65.2203 156.057L66.0805 155.464C66.2536 155.677 66.4648 155.818 66.7141 155.888C66.9617 155.956 67.2264 155.958 67.5082 155.895C67.79 155.831 68.0651 155.707 68.3336 155.522C68.634 155.315 68.8643 155.079 69.0244 154.814C69.1845 154.55 69.2663 154.278 69.27 154.001C69.2736 153.723 69.1909 153.461 69.0219 153.215C68.845 152.958 68.6256 152.775 68.3635 152.667C68.0999 152.557 67.8069 152.53 67.4844 152.588C67.162 152.646 66.8233 152.797 66.4683 153.042L65.9085 153.428L65.392 152.676L65.9518 152.29C66.2294 152.099 66.4384 151.881 66.5789 151.636C66.7217 151.39 66.7896 151.135 66.7827 150.872C66.7781 150.606 66.6913 150.351 66.5222 150.105C66.3595 149.868 66.1655 149.698 65.9403 149.594C65.7151 149.491 65.4733 149.456 65.2148 149.49C64.9586 149.522 64.702 149.627 64.4449 149.804C64.2036 149.971 64.0066 150.172 63.8537 150.408C63.7016 150.641 63.6155 150.886 63.5955 151.145C63.574 151.401 63.6373 151.65 63.7856 151.89L62.9664 152.455C62.728 152.078 62.6177 151.681 62.6354 151.263C62.6515 150.842 62.7736 150.439 63.0017 150.054C63.2321 149.667 63.5486 149.335 63.9514 149.057C64.3837 148.759 64.8149 148.591 65.2449 148.553C65.6733 148.513 66.0684 148.578 66.4302 148.748C66.792 148.918 67.0863 149.169 67.3133 149.499C67.5841 149.893 67.7114 150.3 67.6953 150.721C67.6814 151.14 67.5349 151.525 67.2558 151.875L67.2933 151.929C67.7849 151.698 68.2587 151.648 68.715 151.78C69.1696 151.91 69.5495 152.197 69.8547 152.641C70.1161 153.021 70.2474 153.435 70.2485 153.88C70.2503 154.322 70.1331 154.752 69.8971 155.17C69.6611 155.587 69.3166 155.952 68.8638 156.264ZM71.4062 152.257L70.9273 151.56L70.6561 144.577L71.1612 144.229L71.9031 145.309L71.5618 145.544L71.7669 150.82L71.8045 150.874L75.9415 148.023L76.458 148.775L71.4062 152.257ZM75.6828 151.424L74.5511 149.777L74.3281 149.452L70.8745 144.427L71.6801 143.871L76.4883 150.869L75.6828 151.424ZM80.6746 143.472L79.6962 141.931L78.9805 143.613L78.2584 143.265L79.1175 141.645L77.3005 141.871L77.2338 141.071L79.0576 141.002L77.97 139.536L78.6253 139.085L79.6038 140.626L80.3194 138.944L81.0415 139.292L80.1825 140.911L81.9994 140.686L82.0662 141.486L80.2424 141.555L81.33 143.021L80.6746 143.472ZM85.4806 140.16L84.5022 138.619L83.7865 140.3L83.0644 139.952L83.9235 138.333L82.1065 138.558L82.0398 137.759L83.8636 137.69L82.776 136.224L83.4313 135.772L84.4097 137.313L85.1254 135.632L85.8475 135.98L84.9884 137.599L86.8054 137.374L86.8722 138.174L85.0483 138.243L86.136 139.708L85.4806 140.16ZM90.2866 136.848L89.3082 135.307L88.5925 136.988L87.8704 136.64L88.7295 135.021L86.9125 135.246L86.8457 134.446L88.6696 134.377L87.5819 132.912L88.2373 132.46L89.2157 134.001L89.9314 132.32L90.6535 132.668L89.7944 134.287L91.6114 134.062L91.6781 134.862L89.8543 134.93L90.9419 136.396L90.2866 136.848ZM95.0926 133.535L94.1141 131.994L93.3985 133.676L92.6764 133.328L93.5354 131.709L91.7185 131.934L91.6517 131.134L93.4756 131.065L92.3879 129.599L93.0433 129.148L94.0217 130.689L94.7374 129.007L95.4595 129.355L94.6004 130.975L96.4174 130.749L96.4841 131.549L94.6603 131.618L95.7479 133.084L95.0926 133.535ZM102.602 128.36L101.623 126.819L100.908 128.5L100.186 128.152L101.045 126.533L99.2278 126.758L99.1611 125.958L100.985 125.89L99.8973 124.424L100.553 123.972L101.531 125.513L102.247 123.832L102.969 124.18L102.11 125.799L103.927 125.574L103.993 126.374L102.17 126.443L103.257 127.908L102.602 128.36ZM107.408 125.048L106.429 123.507L105.714 125.188L104.992 124.84L105.851 123.221L104.034 123.446L103.967 122.646L105.791 122.577L104.703 121.112L105.359 120.66L106.337 122.201L107.053 120.52L107.775 120.868L106.916 122.487L108.733 122.262L108.799 123.061L106.976 123.13L108.063 124.596L107.408 125.048ZM112.214 121.735L111.235 120.194L110.52 121.876L109.798 121.528L110.657 119.909L108.84 120.134L108.773 119.334L110.597 119.265L109.509 117.799L110.165 117.348L111.143 118.889L111.859 117.207L112.581 117.555L111.722 119.175L113.539 118.949L113.605 119.749L111.782 119.818L112.869 121.284L112.214 121.735ZM117.02 118.423L116.041 116.882L115.326 118.564L114.604 118.215L115.463 116.596L113.646 116.821L113.579 116.022L115.403 115.953L114.315 114.487L114.971 114.035L115.949 115.576L116.665 113.895L117.387 114.243L116.528 115.862L118.345 115.637L118.411 116.437L116.588 116.506L117.675 117.971L117.02 118.423ZM122.93 108.55L127.739 115.547L126.892 116.13L122.694 110.021L122.653 110.049L121.726 112.36L121.135 111.499L122.084 109.133L122.93 108.55ZM129.749 114.161L129.327 113.546L129.897 109.428C129.964 108.945 130.01 108.534 130.035 108.194C130.058 107.853 130.046 107.556 129.997 107.304C129.949 107.049 129.851 106.814 129.704 106.6C129.535 106.354 129.329 106.182 129.087 106.083C128.848 105.983 128.593 105.954 128.323 105.996C128.053 106.038 127.792 106.145 127.54 106.319C127.271 106.505 127.075 106.722 126.951 106.971C126.829 107.217 126.781 107.477 126.808 107.75C126.837 108.022 126.943 108.291 127.126 108.558L126.321 109.113C126.039 108.703 125.886 108.278 125.862 107.838C125.838 107.398 125.929 106.98 126.136 106.582C126.344 106.183 126.652 105.843 127.06 105.563C127.469 105.28 127.892 105.117 128.327 105.072C128.762 105.027 129.171 105.09 129.552 105.259C129.934 105.429 130.249 105.694 130.496 106.054C130.673 106.312 130.799 106.595 130.875 106.906C130.951 107.212 130.979 107.594 130.958 108.052C130.938 108.505 130.875 109.085 130.771 109.792L130.356 112.555L130.393 112.61L133.643 110.37L134.159 111.122L129.749 114.161ZM135.569 110.15L135.146 109.535L135.716 105.417C135.784 104.934 135.83 104.523 135.855 104.183C135.878 103.842 135.865 103.545 135.817 103.293C135.768 103.038 135.671 102.803 135.524 102.589C135.355 102.343 135.149 102.171 134.907 102.072C134.667 101.972 134.413 101.943 134.143 101.985C133.873 102.027 133.612 102.134 133.359 102.308C133.091 102.494 132.895 102.711 132.771 102.961C132.648 103.206 132.6 103.466 132.627 103.739C132.657 104.011 132.763 104.28 132.946 104.547L132.14 105.102C131.859 104.692 131.706 104.267 131.682 103.827C131.658 103.387 131.749 102.969 131.955 102.571C132.164 102.172 132.472 101.832 132.879 101.552C133.289 101.269 133.711 101.106 134.147 101.061C134.582 101.016 134.99 101.079 135.372 101.248C135.754 101.418 136.068 101.683 136.316 102.043C136.492 102.301 136.619 102.584 136.694 102.895C136.771 103.201 136.799 103.583 136.778 104.041C136.758 104.494 136.695 105.074 136.59 105.781L136.175 108.544L136.213 108.599L139.462 106.359L139.979 107.111L135.569 110.15ZM140.089 104.921L139.61 104.224L139.338 97.2412L139.844 96.893L140.585 97.9726L140.244 98.2079L140.449 103.484L140.487 103.538L144.624 100.687L145.14 101.439L140.089 104.921ZM144.365 104.088L143.233 102.441L143.01 102.116L139.557 97.0906L140.362 96.5354L145.171 103.533L144.365 104.088Z" fill="white"/>
<path d="M80.13 190.454L79.5322 190.867C79.3786 190.719 79.2128 190.61 79.0348 190.541C78.8585 190.47 78.6773 190.434 78.4911 190.432C78.3055 190.427 78.1216 190.454 77.9396 190.513C77.7576 190.572 77.5846 190.658 77.4207 190.771C77.1218 190.977 76.9029 191.24 76.7642 191.558C76.627 191.876 76.5881 192.231 76.6473 192.624C76.7082 193.016 76.8856 193.425 77.1797 193.853C77.4737 194.281 77.7926 194.594 78.1363 194.79C78.4816 194.986 78.8268 195.077 79.1718 195.062C79.5183 195.046 79.8411 194.935 80.14 194.729C80.304 194.616 80.446 194.485 80.5661 194.335C80.6862 194.186 80.7777 194.025 80.8407 193.851C80.9041 193.675 80.9345 193.491 80.9317 193.301C80.9295 193.108 80.8874 192.915 80.8056 192.72L81.4035 192.308C81.532 192.591 81.6054 192.874 81.6235 193.155C81.6417 193.437 81.6104 193.708 81.5298 193.97C81.4481 194.23 81.322 194.472 81.1516 194.696C80.9828 194.919 80.7738 195.117 80.5247 195.289C80.1036 195.579 79.6584 195.734 79.1891 195.754C78.7198 195.774 78.2606 195.659 77.8117 195.409C77.3628 195.159 76.9593 194.773 76.6011 194.252C76.243 193.731 76.0275 193.216 75.9546 192.706C75.8818 192.197 75.9385 191.727 76.1249 191.295C76.3112 190.863 76.615 190.502 77.036 190.212C77.2851 190.04 77.5438 189.915 77.8121 189.837C78.0821 189.757 78.3535 189.727 78.6265 189.745C78.8983 189.761 79.1622 189.828 79.4182 189.946C79.6731 190.062 79.9104 190.231 80.13 190.454ZM84.5029 192.575C84.2683 192.737 84.0249 192.839 83.7729 192.883C83.5198 192.924 83.2789 192.9 83.0503 192.808C82.8207 192.715 82.6229 192.548 82.4571 192.307C82.3112 192.094 82.2347 191.894 82.2276 191.704C82.2194 191.513 82.2593 191.331 82.3471 191.159C82.435 190.987 82.5506 190.825 82.6939 190.672C82.8378 190.516 82.9879 190.367 83.1444 190.226C83.3495 190.042 83.517 189.895 83.6468 189.784C83.7772 189.67 83.8618 189.573 83.9007 189.491C83.9412 189.409 83.9299 189.322 83.8669 189.23L83.8536 189.211C83.69 188.973 83.4978 188.833 83.277 188.791C83.0578 188.747 82.8172 188.816 82.5552 188.996C82.2836 189.184 82.1116 189.39 82.0391 189.615C81.9666 189.841 81.9455 190.042 81.9756 190.221L81.303 190.4C81.2447 190.108 81.2527 189.844 81.3272 189.608C81.4022 189.369 81.5182 189.159 81.6752 188.977C81.8327 188.793 82.0046 188.636 82.1911 188.508C82.31 188.426 82.4565 188.346 82.6307 188.269C82.8054 188.189 82.9949 188.142 83.1992 188.129C83.4052 188.115 83.6166 188.163 83.8335 188.272C84.0504 188.381 84.26 188.582 84.4623 188.877L86.1404 191.319L85.5714 191.711L85.2265 191.209L85.1976 191.229C85.2143 191.336 85.2092 191.466 85.1822 191.62C85.1552 191.774 85.0891 191.934 84.9838 192.101C84.8786 192.269 84.7183 192.427 84.5029 192.575ZM84.2382 192.004C84.4632 191.849 84.6224 191.674 84.7159 191.479C84.811 191.283 84.8498 191.088 84.8324 190.894C84.8166 190.698 84.7556 190.524 84.6495 190.369L84.2914 189.848C84.2872 189.894 84.2524 189.957 84.187 190.037C84.1221 190.115 84.0427 190.199 83.9488 190.29C83.8554 190.378 83.7633 190.463 83.6725 190.545C83.5822 190.624 83.5093 190.688 83.4537 190.738C83.3191 190.859 83.2025 190.986 83.1038 191.118C83.0055 191.247 82.9463 191.382 82.9262 191.521C82.9065 191.658 82.9464 191.799 83.0459 191.944C83.1819 192.142 83.3578 192.241 83.5737 192.241C83.7901 192.239 84.0116 192.16 84.2382 192.004ZM87.1787 190.603L84.6319 186.897L85.1815 186.518L85.5662 187.078L85.6048 187.051C85.5462 186.821 85.5661 186.588 85.6644 186.352C85.7627 186.116 85.9228 185.922 86.1446 185.769C86.1863 185.74 86.2391 185.705 86.3029 185.663C86.3667 185.622 86.4158 185.591 86.4501 185.572L86.8481 186.152C86.8255 186.16 86.7763 186.183 86.7005 186.221C86.6253 186.256 86.5499 186.3 86.4744 186.352C86.2944 186.476 86.1597 186.625 86.0702 186.798C85.9812 186.968 85.9411 187.148 85.9498 187.336C85.9589 187.522 86.021 187.698 86.136 187.865L87.7477 190.211L87.1787 190.603ZM91.0431 188.053C90.7345 188.266 90.4085 188.376 90.065 188.383C89.7205 188.388 89.3831 188.293 89.0529 188.099C88.7217 187.903 88.4212 187.609 88.1515 187.216C87.8839 186.827 87.7185 186.443 87.6551 186.065C87.5918 185.686 87.6254 185.337 87.756 185.017C87.8866 184.697 88.1078 184.43 88.4196 184.215C88.6607 184.049 88.8788 183.958 89.0739 183.942C89.2695 183.923 89.439 183.939 89.5826 183.99C89.7267 184.037 89.8417 184.079 89.9277 184.114L89.9759 184.081L88.7224 182.257L89.2913 181.865L92.6871 186.807L92.1375 187.185L91.7462 186.616L91.6787 186.662C91.6833 186.759 91.6825 186.885 91.6761 187.041C91.6686 187.196 91.6209 187.362 91.5332 187.541C91.4443 187.719 91.2809 187.89 91.0431 188.053ZM90.7687 187.489C90.9969 187.331 91.1489 187.139 91.2246 186.911C91.2992 186.682 91.3045 186.433 91.2405 186.164C91.1755 185.894 91.0468 185.619 90.8544 185.339C90.6643 185.062 90.4578 184.848 90.2348 184.696C90.0107 184.542 89.7802 184.461 89.5431 184.454C89.3049 184.445 89.0701 184.521 88.8386 184.68C88.5976 184.846 88.4393 185.047 88.3637 185.281C88.2886 185.513 88.2832 185.762 88.3477 186.028C88.4127 186.292 88.5347 186.554 88.7137 186.814C88.895 187.078 89.0999 187.29 89.3284 187.45C89.5574 187.608 89.7951 187.695 90.0415 187.713C90.2885 187.727 90.5309 187.653 90.7687 187.489ZM94.7542 182.096L96.2863 184.326L95.7174 184.718L92.3215 179.776L92.8904 179.384L94.1373 181.199L94.1856 181.166C94.1408 180.914 94.1665 180.673 94.2627 180.44C94.3594 180.205 94.5532 179.988 94.8441 179.787C95.0964 179.613 95.3522 179.512 95.6115 179.482C95.8696 179.451 96.1223 179.504 96.3693 179.639C96.6169 179.772 96.8501 179.998 97.069 180.316L98.6873 182.671L98.1184 183.063L96.5266 180.747C96.3243 180.453 96.0915 180.278 95.8283 180.222C95.5656 180.164 95.3001 180.227 95.0317 180.412C94.8452 180.54 94.7052 180.695 94.6115 180.876C94.5194 181.055 94.4827 181.25 94.5015 181.46C94.5218 181.669 94.606 181.881 94.7542 182.096ZM101.285 180.994C100.951 181.225 100.603 181.347 100.241 181.362C99.8812 181.375 99.5321 181.288 99.1939 181.099C98.8573 180.909 98.5575 180.623 98.2944 180.24C98.0291 179.854 97.8674 179.468 97.8093 179.084C97.7529 178.699 97.7953 178.34 97.9366 178.008C98.0795 177.675 98.3181 177.393 98.6523 177.163C98.9866 176.932 99.3338 176.81 99.694 176.797C100.056 176.782 100.405 176.871 100.743 177.062C101.082 177.253 101.385 177.541 101.65 177.927C101.913 178.31 102.072 178.693 102.128 179.077C102.185 179.46 102.142 179.818 101.999 180.151C101.857 180.483 101.62 180.764 101.285 180.994ZM100.934 180.483C101.188 180.308 101.352 180.099 101.426 179.855C101.501 179.612 101.504 179.357 101.437 179.091C101.37 178.824 101.251 178.567 101.081 178.319C100.911 178.071 100.713 177.868 100.487 177.708C100.261 177.548 100.021 177.459 99.7666 177.44C99.512 177.421 99.2578 177.499 99.0039 177.674C98.7499 177.849 98.5863 178.059 98.513 178.304C98.4398 178.549 98.4373 178.805 98.5055 179.074C98.5738 179.342 98.6931 179.6 98.8633 179.848C99.0335 180.095 99.231 180.298 99.4556 180.456C99.6803 180.614 99.9194 180.702 100.173 180.719C100.426 180.737 100.68 180.658 100.934 180.483ZM100.952 173.828L104.348 178.77L103.779 179.162L100.383 174.221L100.952 173.828ZM106.841 177.166C106.532 177.378 106.206 177.488 105.863 177.495C105.518 177.5 105.181 177.405 104.851 177.211C104.519 177.015 104.219 176.721 103.949 176.328C103.682 175.939 103.516 175.555 103.453 175.177C103.39 174.799 103.423 174.449 103.554 174.129C103.684 173.809 103.906 173.542 104.217 173.327C104.458 173.161 104.677 173.07 104.872 173.054C105.067 173.035 105.237 173.051 105.38 173.102C105.524 173.149 105.639 173.191 105.725 173.227L105.774 173.193L104.52 171.369L105.089 170.977L108.485 175.919L107.935 176.298L107.544 175.728L107.476 175.775C107.481 175.871 107.48 175.997 107.474 176.153C107.466 176.308 107.419 176.475 107.331 176.654C107.242 176.831 107.079 177.002 106.841 177.166ZM106.566 176.601C106.795 176.444 106.947 176.251 107.022 176.024C107.097 175.794 107.102 175.545 107.038 175.277C106.973 175.006 106.845 174.731 106.652 174.451C106.462 174.174 106.255 173.96 106.033 173.808C105.808 173.654 105.578 173.574 105.341 173.566C105.103 173.557 104.868 173.633 104.636 173.792C104.395 173.958 104.237 174.159 104.161 174.393C104.086 174.625 104.081 174.874 104.145 175.14C104.21 175.404 104.332 175.666 104.511 175.926C104.693 176.19 104.898 176.402 105.126 176.562C105.355 176.72 105.593 176.807 105.839 176.825C106.086 176.839 106.329 176.765 106.566 176.601ZM111.211 174.153C110.855 174.399 110.493 174.533 110.126 174.553C109.759 174.571 109.408 174.486 109.073 174.298C108.738 174.107 108.44 173.821 108.179 173.442C107.918 173.062 107.757 172.68 107.696 172.295C107.636 171.907 107.675 171.547 107.812 171.212C107.95 170.876 108.186 170.592 108.52 170.362C108.713 170.229 108.926 170.13 109.158 170.064C109.39 169.999 109.633 169.986 109.887 170.024C110.14 170.061 110.393 170.166 110.647 170.339C110.901 170.513 111.147 170.772 111.385 171.118L111.551 171.359L108.696 173.327L108.358 172.834L110.634 171.266C110.49 171.057 110.32 170.899 110.124 170.793C109.929 170.685 109.723 170.636 109.505 170.647C109.289 170.656 109.078 170.731 108.872 170.873C108.645 171.029 108.488 171.221 108.4 171.447C108.312 171.671 108.285 171.903 108.32 172.143C108.354 172.382 108.441 172.604 108.582 172.808L108.807 173.136C109 173.416 109.211 173.62 109.441 173.749C109.672 173.874 109.909 173.928 110.152 173.909C110.394 173.889 110.63 173.8 110.86 173.642C111.009 173.539 111.13 173.425 111.222 173.3C111.314 173.172 111.375 173.036 111.405 172.889C111.434 172.742 111.428 172.587 111.388 172.425L112.043 172.2C112.114 172.427 112.129 172.658 112.09 172.894C112.049 173.128 111.956 173.353 111.809 173.571C111.661 173.786 111.462 173.981 111.211 174.153ZM113.557 172.423L111.01 168.717L111.56 168.338L111.944 168.898L111.983 168.871C111.924 168.641 111.944 168.408 112.043 168.172C112.141 167.936 112.301 167.742 112.523 167.589C112.565 167.56 112.617 167.525 112.681 167.483C112.745 167.442 112.794 167.411 112.828 167.393L113.226 167.972C113.204 167.98 113.154 168.003 113.079 168.041C113.004 168.077 112.928 168.12 112.853 168.172C112.673 168.296 112.538 168.445 112.448 168.618C112.359 168.788 112.319 168.968 112.328 169.156C112.337 169.342 112.399 169.518 112.514 169.686L114.126 172.031L113.557 172.423Z" fill="white"/>
<path d="M83.7044 162.493L86.4456 166.482L85.963 166.814L83.5698 163.332L83.5465 163.348L83.0179 164.665L82.6806 164.174L83.2218 162.825L83.7044 162.493ZM86.2516 160.737L88.9928 164.726L88.5102 165.059L86.117 161.576L86.0937 161.592L85.5651 162.909L85.2278 162.419L85.769 161.07L86.2516 160.737ZM88.6859 158.784L90.6835 164.445L90.2632 164.735L88.2656 159.073L88.6859 158.784ZM92.0922 162.59L91.8513 162.239L92.1763 159.891C92.2146 159.616 92.2409 159.382 92.2552 159.188C92.2685 158.994 92.2613 158.824 92.2334 158.681C92.206 158.535 92.1503 158.401 92.0664 158.279C91.9701 158.139 91.8529 158.041 91.7149 157.985C91.5783 157.928 91.4331 157.911 91.2792 157.935C91.1254 157.959 90.9765 158.02 90.8325 158.12C90.6794 158.225 90.5676 158.349 90.4972 158.491C90.4272 158.631 90.3998 158.779 90.4152 158.935C90.4319 159.09 90.4924 159.244 90.5968 159.396L90.1375 159.712C89.9769 159.478 89.8898 159.236 89.8761 158.985C89.8624 158.735 89.9144 158.496 90.0321 158.269C90.1511 158.042 90.3267 157.848 90.5589 157.688C90.7925 157.527 91.0333 157.434 91.2814 157.408C91.5296 157.383 91.7624 157.418 91.98 157.515C92.1976 157.612 92.3769 157.763 92.5179 157.968C92.6187 158.115 92.6907 158.277 92.7339 158.454C92.7775 158.628 92.7933 158.846 92.7814 159.107C92.7698 159.366 92.7342 159.696 92.6745 160.099L92.4379 161.674L92.4594 161.706L94.3119 160.429L94.6063 160.857L92.0922 162.59ZM96.6929 159.5C96.4646 159.657 96.2277 159.753 95.9823 159.788C95.737 159.824 95.5047 159.8 95.2856 159.717C95.0664 159.635 94.8821 159.496 94.7325 159.301L95.1995 158.979C95.3417 159.147 95.5261 159.24 95.7526 159.258C95.9795 159.274 96.1948 159.211 96.3984 159.071C96.5619 158.958 96.6809 158.82 96.7554 158.656C96.8311 158.491 96.8594 158.316 96.8401 158.132C96.8213 157.946 96.7534 157.768 96.6365 157.598C96.517 157.424 96.372 157.295 96.2018 157.212C96.032 157.126 95.8537 157.089 95.6669 157.101C95.4802 157.113 95.3014 157.177 95.1306 157.293C95.0077 157.376 94.8955 157.481 94.7938 157.608C94.6912 157.734 94.619 157.856 94.577 157.973L94.0881 158.229L92.9802 156.1L95.0507 154.673L95.3451 155.101L93.6794 156.249L94.3477 157.522L94.3711 157.506C94.4082 157.385 94.4737 157.26 94.5675 157.133C94.6612 157.005 94.775 156.895 94.9086 156.803C95.1525 156.635 95.4099 156.543 95.6809 156.529C95.9523 156.512 96.2117 156.567 96.459 156.693C96.7075 156.818 96.9206 157.01 97.0982 157.268C97.2731 157.523 97.3722 157.79 97.3954 158.068C97.4191 158.345 97.3714 158.609 97.2523 158.861C97.1323 159.113 96.9459 159.325 96.6929 159.5Z" fill="white"/>
<path d="M134.255 130.926C133.962 131.128 133.658 131.221 133.342 131.203C133.025 131.184 132.707 131.06 132.388 130.83C132.069 130.598 131.76 130.266 131.462 129.832C131.166 129.401 130.967 128.995 130.866 128.615C130.766 128.233 130.764 127.89 130.859 127.587C130.955 127.281 131.149 127.028 131.439 126.828C131.73 126.628 132.034 126.538 132.352 126.558C132.67 126.576 132.989 126.701 133.309 126.932C133.628 127.161 133.937 127.491 134.233 127.922C134.531 128.356 134.731 128.764 134.832 129.145C134.933 129.525 134.936 129.867 134.84 130.17C134.743 130.472 134.549 130.724 134.255 130.926ZM133.961 130.498C134.252 130.297 134.381 130.002 134.349 129.61C134.317 129.219 134.123 128.764 133.766 128.244C133.528 127.899 133.289 127.63 133.049 127.438C132.809 127.246 132.577 127.133 132.352 127.1C132.128 127.067 131.92 127.117 131.728 127.249C131.44 127.447 131.313 127.745 131.346 128.141C131.379 128.536 131.573 128.992 131.929 129.51C132.166 129.856 132.404 130.124 132.643 130.316C132.881 130.507 133.112 130.619 133.335 130.651C133.559 130.682 133.768 130.631 133.961 130.498ZM137.68 128.566C137.387 128.768 137.082 128.86 136.766 128.843C136.45 128.824 136.132 128.699 135.813 128.469C135.493 128.238 135.185 127.905 134.887 127.472C134.59 127.041 134.392 126.635 134.291 126.255C134.191 125.872 134.189 125.529 134.284 125.226C134.38 124.921 134.574 124.668 134.864 124.468C135.155 124.267 135.459 124.177 135.777 124.198C136.095 124.215 136.414 124.34 136.733 124.571C137.053 124.801 137.361 125.131 137.658 125.562C137.956 125.996 138.156 126.403 138.257 126.785C138.358 127.165 138.36 127.507 138.265 127.81C138.168 128.112 137.973 128.364 137.68 128.566ZM137.386 128.137C137.676 127.937 137.806 127.641 137.774 127.25C137.742 126.859 137.548 126.403 137.191 125.884C136.953 125.538 136.714 125.27 136.473 125.078C136.234 124.885 136.002 124.772 135.777 124.74C135.553 124.707 135.345 124.756 135.153 124.888C134.865 125.087 134.738 125.384 134.771 125.78C134.803 126.175 134.998 126.632 135.354 127.15C135.591 127.495 135.829 127.764 136.068 127.955C136.306 128.147 136.537 128.258 136.76 128.29C136.984 128.322 137.192 128.271 137.386 128.137ZM138.315 121.894L140.312 127.555L139.892 127.845L137.894 122.184L138.315 121.894ZM143.058 124.859C142.765 125.061 142.461 125.154 142.145 125.136C141.828 125.117 141.51 124.993 141.191 124.763C140.872 124.531 140.563 124.199 140.265 123.765C139.969 123.334 139.77 122.928 139.669 122.548C139.569 122.166 139.567 121.823 139.662 121.52C139.758 121.214 139.952 120.961 140.242 120.761C140.533 120.561 140.837 120.471 141.155 120.491C141.473 120.509 141.792 120.634 142.111 120.865C142.431 121.094 142.74 121.424 143.036 121.855C143.334 122.289 143.534 122.697 143.635 123.078C143.736 123.458 143.739 123.8 143.643 124.103C143.546 124.405 143.352 124.657 143.058 124.859ZM142.764 124.431C143.054 124.23 143.184 123.935 143.152 123.543C143.12 123.152 142.926 122.697 142.569 122.177C142.331 121.832 142.092 121.563 141.852 121.371C141.612 121.179 141.38 121.066 141.155 121.033C140.931 121 140.723 121.05 140.531 121.182C140.243 121.38 140.116 121.678 140.149 122.074C140.182 122.469 140.376 122.925 140.732 123.443C140.969 123.789 141.207 124.057 141.446 124.249C141.684 124.44 141.915 124.552 142.138 124.584C142.362 124.615 142.571 124.564 142.764 124.431ZM146.53 122.467C146.273 122.644 146.014 122.757 145.752 122.808C145.491 122.857 145.248 122.844 145.022 122.768C144.797 122.69 144.607 122.55 144.453 122.348L144.943 122.01C145.042 122.132 145.162 122.212 145.304 122.252C145.446 122.291 145.596 122.292 145.757 122.256C145.918 122.22 146.075 122.149 146.228 122.044C146.399 121.925 146.53 121.791 146.621 121.64C146.713 121.489 146.759 121.335 146.761 121.176C146.764 121.018 146.716 120.869 146.62 120.728C146.519 120.582 146.394 120.477 146.245 120.416C146.094 120.353 145.927 120.338 145.744 120.371C145.56 120.404 145.367 120.49 145.164 120.629L144.845 120.849L144.551 120.421L144.87 120.201C145.028 120.092 145.147 119.968 145.227 119.828C145.309 119.688 145.347 119.543 145.343 119.392C145.341 119.241 145.291 119.095 145.195 118.955C145.102 118.82 144.992 118.723 144.863 118.664C144.735 118.605 144.597 118.586 144.45 118.605C144.304 118.623 144.157 118.683 144.011 118.784C143.873 118.879 143.761 118.993 143.674 119.128C143.587 119.261 143.538 119.401 143.526 119.548C143.514 119.694 143.55 119.836 143.635 119.973L143.168 120.295C143.032 120.08 142.969 119.854 142.979 119.615C142.988 119.376 143.058 119.146 143.188 118.926C143.319 118.705 143.5 118.516 143.729 118.358C143.976 118.188 144.222 118.092 144.467 118.071C144.711 118.048 144.936 118.085 145.142 118.182C145.349 118.279 145.517 118.421 145.646 118.61C145.8 118.834 145.873 119.067 145.864 119.306C145.856 119.545 145.772 119.765 145.613 119.964L145.635 119.995C145.915 119.863 146.185 119.835 146.445 119.91C146.704 119.984 146.921 120.148 147.095 120.401C147.244 120.618 147.319 120.853 147.319 121.107C147.32 121.359 147.254 121.604 147.119 121.843C146.984 122.081 146.788 122.289 146.53 122.467Z" fill="white"/>
<defs>
<filter id="filter0_b_719_4077" x="-1.9874" y="-80.1036" width="274.896" height="274.896" filterUnits="userSpaceOnUse" color-interpolation-filters="sRGB">
<feFlood flood-opacity="0" result="BackgroundImageFix"/>
<feGaussianBlur in="BackgroundImageFix" stdDeviation="53.539"/>
<feComposite in2="SourceAlpha" operator="in" result="effect1_backgroundBlur_719_4077"/>
<feBlend mode="normal" in="SourceGraphic" in2="effect1_backgroundBlur_719_4077" result="shape"/>
</filter>
<filter id="filter1_b_719_4077" x="14.6586" y="-106.079" width="256.357" height="256.356" filterUnits="userSpaceOnUse" color-interpolation-filters="sRGB">
<feFlood flood-opacity="0" result="BackgroundImageFix"/>
<feGaussianBlur in="BackgroundImageFix" stdDeviation="43.4577"/>
<feComposite in2="SourceAlpha" operator="in" result="effect1_backgroundBlur_719_4077"/>
<feBlend mode="normal" in="SourceGraphic" in2="effect1_backgroundBlur_719_4077" result="shape"/>
</filter>
<filter id="filter2_b_719_4077" x="-91.1053" y="0.576462" width="394.465" height="394.465" filterUnits="userSpaceOnUse" color-interpolation-filters="sRGB">
<feFlood flood-opacity="0" result="BackgroundImageFix"/>
<feGaussianBlur in="BackgroundImageFix" stdDeviation="86.2844"/>
<feComposite in2="SourceAlpha" operator="in" result="effect1_backgroundBlur_719_4077"/>
<feBlend mode="normal" in="SourceGraphic" in2="effect1_backgroundBlur_719_4077" result="shape"/>
</filter>
<filter id="filter3_b_719_4077" x="-89.6747" y="36.9648" width="331.01" height="331.01" filterUnits="userSpaceOnUse" color-interpolation-filters="sRGB">
<feFlood flood-opacity="0" result="BackgroundImageFix"/>
<feGaussianBlur in="BackgroundImageFix" stdDeviation="70.0372"/>
<feComposite in2="SourceAlpha" operator="in" result="effect1_backgroundBlur_719_4077"/>
<feBlend mode="normal" in="SourceGraphic" in2="effect1_backgroundBlur_719_4077" result="shape"/>
</filter>
<clipPath id="clip0_719_4077">
<path d="M83.5658 56.4695L152.711 8.77264C158.621 4.69587 166.717 6.18198 170.793 12.092L204.295 60.658L124.449 115.736L83.5658 56.4695Z" fill="white"/>
</clipPath>
<clipPath id="clip1_719_4077">
<path d="M46.4208 180.495L99.9257 143.586L127.749 183.921L84.1218 214.015C78.6664 217.778 71.1933 216.407 67.4301 210.951L46.4208 180.495Z" fill="white"/>
</clipPath>
</defs>
</svg>
