<svg width="104" height="100" viewBox="0 0 104 100" fill="none" xmlns="http://www.w3.org/2000/svg">
<path fill-rule="evenodd" clip-rule="evenodd" d="M52.5 0.366699C58.515 0.366699 60 6.44357 60 11.6167C60 16.7917 56.64 19.1167 52.5 19.1167C48.36 19.1167 45 16.7917 45 11.6167C45 6.44357 46.485 0.366699 52.5 0.366699Z" fill="url(#paint0_linear_3928_4288)"/>
<path fill-rule="evenodd" clip-rule="evenodd" d="M52.4998 0.366699C58.5148 0.366699 59.9998 6.44357 59.9998 11.6167C59.9998 16.7917 56.6398 19.1167 52.4998 19.1167C52.1248 19.1167 51.7554 19.0979 51.3936 19.0586C55.0104 18.6723 57.7892 16.3211 57.7892 11.6167C57.7892 6.46233 58.5092 0.413574 52.5692 0.366699H52.4998Z" fill="#A4BBDB"/>
<path fill-rule="evenodd" clip-rule="evenodd" d="M52.5001 79.0078C74.7488 79.0078 90.9376 83.6278 92.8126 89.3203C94.5938 94.7259 74.7488 99.6328 52.5001 99.6328C30.2513 99.6328 10.4063 94.7259 12.1876 89.3203C14.0626 83.6278 30.2513 79.0078 52.5001 79.0078Z" fill="url(#paint1_linear_3928_4288)"/>
<path fill-rule="evenodd" clip-rule="evenodd" d="M87.5007 84.5918C90.407 86.0074 92.252 87.6162 92.8126 89.3205C94.5939 94.7262 74.7489 99.633 52.5001 99.633C39.9807 99.633 28.2226 98.0787 20.6514 95.7574C26.7939 96.4568 33.5701 96.8543 40.5489 96.8543C66.6076 96.8543 89.852 91.3137 87.7651 85.2105C87.6939 85.0024 87.6057 84.7962 87.5007 84.5918Z" fill="#B8CAE3"/>
<path d="M52.5 94.9229C57.6777 94.9229 61.875 90.7255 61.875 85.5479C61.875 80.3702 57.6777 76.1729 52.5 76.1729C47.3223 76.1729 43.125 80.3702 43.125 85.5479C43.125 90.7255 47.3223 94.9229 52.5 94.9229Z" fill="url(#paint2_linear_3928_4288)"/>
<path fill-rule="evenodd" clip-rule="evenodd" d="M43.2637 87.166C43.1719 86.641 43.125 86.101 43.125 85.5479C43.125 80.3747 47.325 76.1729 52.5 76.1729C56.2931 76.1729 59.5631 78.4304 61.0388 81.6741C59.3306 80.9804 57.465 80.5979 55.5112 80.5979C50.4019 80.5979 45.9 83.2078 43.2637 87.166Z" fill="#526B8F"/>
<path fill-rule="evenodd" clip-rule="evenodd" d="M12.1875 89.3206C12.1875 89.3206 16.6106 77.6337 20.1263 68.3412C22.935 60.9181 24.375 53.0487 24.375 45.1137C24.375 42.7306 24.375 40.1431 24.375 37.4956C24.375 30.5337 27.1406 23.8569 32.0644 18.9331C36.9862 14.0112 43.6631 11.2456 50.625 11.2456H54.375C61.3369 11.2456 68.0137 14.0112 72.9356 18.9331C77.8594 23.8569 80.625 30.5337 80.625 37.4956V45.29C80.625 53.2869 82.0875 61.2181 84.9394 68.69L92.8125 89.3206C90.9375 83.6281 74.7487 79.0081 52.5 79.0081C31.6406 79.0081 16.11 83.0694 12.705 88.2669L12.1875 89.3206Z" fill="url(#paint3_linear_3928_4288)"/>
<path fill-rule="evenodd" clip-rule="evenodd" d="M51.4931 11.2456C26.2219 22.0681 32.9456 43.0419 28.8112 62.1706C27.6375 67.6006 25.5881 75.2656 21.6844 82.9212C17.1431 84.4212 14.0194 86.2587 12.705 88.2669L12.1875 89.3206C12.1875 89.3206 16.6106 77.6337 20.1262 68.3412C22.935 60.9181 24.375 53.0487 24.375 45.1137C24.375 42.7306 24.375 40.1431 24.375 37.4956C24.375 30.5337 27.1406 23.8569 32.0644 18.9331C36.9862 14.0112 43.6631 11.2456 50.625 11.2456H51.4931Z" fill="#F2F8FD"/>
<path fill-rule="evenodd" clip-rule="evenodd" d="M0.675159 29.5605C7.34453 35.1143 13.4814 37.8387 18.4014 38.5043C22.4889 39.0574 25.8189 38.2137 28.127 36.4474C30.5495 34.5968 31.9389 31.7168 31.8752 28.0868C31.8114 24.4887 30.4633 21.9274 28.637 20.2924C24.092 16.2218 16.4758 17.8418 15.0489 23.943C14.8145 24.9518 15.4408 25.9605 16.4477 26.1968C17.4564 26.4312 18.4652 25.8049 18.7014 24.798C19.4739 21.4887 23.6702 20.8774 26.1339 23.0862C27.3133 24.1399 28.0839 25.8312 28.1252 28.1524C28.1589 30.0762 27.617 31.6905 26.5314 32.853C25.427 34.0343 23.7902 34.7224 21.7783 34.8855C17.0289 35.2699 10.4664 32.8324 3.07516 26.6787C2.28016 26.0168 1.09703 26.1255 0.433283 26.9205C-0.228592 27.7155 -0.119841 28.8987 0.675159 29.5605Z" fill="#4673B7"/>
<path fill-rule="evenodd" clip-rule="evenodd" d="M0.56426 46.3363C7.65363 53.2625 22.2974 55.1282 34.4193 50.4969C46.8355 45.755 50.5574 41.4932 58.7549 38.5644C59.7299 38.2157 60.238 37.1413 59.8911 36.1663C59.5424 35.1932 58.468 34.685 57.4949 35.0319C49.2711 37.97 45.5361 42.2375 33.0805 46.9944C22.3893 51.0782 9.43676 49.7619 3.18551 43.655C2.44488 42.9313 1.25613 42.9444 0.534259 43.685C-0.189491 44.4257 -0.176365 45.6125 0.56426 46.3363Z" fill="#4673B7"/>
<path fill-rule="evenodd" clip-rule="evenodd" d="M68.3436 35.42C71.5986 33.7794 78.103 32.1894 81.8267 33.62C82.7924 33.9913 83.878 33.5094 84.2492 32.5438C84.6205 31.5781 84.1386 30.4925 83.173 30.1213C78.6205 28.37 70.6367 30.065 66.6561 32.0713C65.7317 32.5363 65.3605 33.665 65.8255 34.5894C66.2905 35.5138 67.4192 35.885 68.3436 35.42Z" fill="#4673B7"/>
<path fill-rule="evenodd" clip-rule="evenodd" d="M76.8748 31.2275C79.3873 18.2338 98.8742 21.8544 103.125 33.7457C103.125 33.7457 100.588 34.0307 95.6248 37.4957C87.2867 43.3194 75.2773 39.4925 76.8748 31.2275Z" fill="#4673B7"/>
<path fill-rule="evenodd" clip-rule="evenodd" d="M51.8361 72.6762C58.8917 66.7081 69.4179 62.0149 77.3154 61.5893C81.7667 61.3493 85.3761 62.4087 86.3079 66.0818C86.7373 67.7731 86.5948 69.1981 86.0267 70.3325C85.1773 72.0293 83.4354 73.0381 81.6298 73.3774C79.6911 73.7393 77.6079 73.3681 76.4604 71.9431C75.8098 71.1387 74.6286 71.0112 73.8223 71.6599C73.0179 72.3106 72.8904 73.4918 73.5392 74.2981C75.5098 76.7393 78.9954 77.6862 82.3217 77.0618C85.2523 76.5124 88.0011 74.765 89.3792 72.0125C90.2961 70.1806 90.6354 67.8874 89.9417 65.1593C88.5729 59.7631 83.6511 57.4924 77.1148 57.8449C68.5367 58.3062 57.0767 63.3331 49.4136 69.8131C48.6242 70.4825 48.5248 71.6656 49.1923 72.4568C49.8617 73.2462 51.0448 73.3456 51.8361 72.6762Z" fill="#4673B7"/>
<defs>
<linearGradient id="paint0_linear_3928_4288" x1="47.3119" y1="1.54607" x2="58.89" y2="14.4479" gradientUnits="userSpaceOnUse">
<stop stop-color="#CADCF0"/>
<stop offset="1" stop-color="#A4BBDB"/>
</linearGradient>
<linearGradient id="paint1_linear_3928_4288" x1="89.9288" y1="97.8309" x2="18.3901" y2="79.9978" gradientUnits="userSpaceOnUse">
<stop stop-color="#A4BBDB"/>
<stop offset="1" stop-color="#8DA3BE"/>
</linearGradient>
<linearGradient id="paint2_linear_3928_4288" x1="61.3387" y1="95.6541" x2="41.1319" y2="76.1222" gradientUnits="userSpaceOnUse">
<stop stop-color="#738BAB"/>
<stop offset="1" stop-color="#526B8F"/>
</linearGradient>
<linearGradient id="paint3_linear_3928_4288" x1="38.3962" y1="14.2681" x2="82.8694" y2="80.8681" gradientUnits="userSpaceOnUse">
<stop stop-color="#E9F3FC"/>
<stop offset="1" stop-color="#CADCF0"/>
</linearGradient>
</defs>
</svg>
