<svg width="14" height="21" viewBox="0 0 14 21" fill="none" xmlns="http://www.w3.org/2000/svg">
<path d="M2.85651 7.43281L5.86353 5.2486C6.20111 5.00156 6.61168 4.87472 7.02976 4.88832C7.53969 4.90103 8.03301 5.07232 8.44115 5.37834C8.84918 5.68437 9.15186 6.10995 9.30685 6.59591C9.48137 7.1429 9.64087 7.51256 9.78535 7.7049C10.2219 8.28736 10.7882 8.76004 11.4394 9.08542C12.0905 9.41089 12.8085 9.57996 13.5364 9.57949V11.456C12.5675 11.457 11.6104 11.2433 10.734 10.8301C9.8576 10.4169 9.08374 9.81443 8.46807 9.06628L7.81412 12.777L9.74783 14.4001L11.8335 20.1309L10.0696 20.7726L8.15564 15.5148L4.97504 12.8455C4.71403 12.6348 4.51429 12.3578 4.39664 12.0437C4.27898 11.7295 4.24771 11.3894 4.30608 11.0591L4.78364 8.35228L4.14846 8.8139L2.15283 11.561L0.634766 10.4577L2.84056 7.42155L2.85651 7.43281ZM8.37613 4.4192C7.87849 4.4192 7.40121 4.22151 7.04927 3.86959C6.69734 3.51769 6.49966 3.0404 6.49966 2.54273C6.49966 2.04506 6.69734 1.56777 7.04927 1.21587C7.40121 0.863955 7.87849 0.66626 8.37613 0.66626C8.87386 0.66626 9.35114 0.863955 9.70298 1.21587C10.0549 1.56777 10.2526 2.04506 10.2526 2.54273C10.2526 3.0404 10.0549 3.51769 9.70298 3.86959C9.35114 4.22151 8.87386 4.4192 8.37613 4.4192ZM5.58769 16.7861L2.57222 20.3795L1.13485 19.1739L3.92703 15.8469L4.62696 13.8016L6.30732 15.2089L5.58769 16.7861Z" fill="black"/>
</svg>
