<svg width="14" height="18" viewBox="0 0 14 18" fill="none" xmlns="http://www.w3.org/2000/svg">
<path d="M11.8156 0.25H2.18433C1.76997 0.25015 1.37263 0.414818 1.07964 0.707811C0.786644 1.0008 0.621976 1.39815 0.621826 1.8125V13.5625H3.42808C3.69999 13.5755 3.95574 13.6955 4.13956 13.8963C4.32337 14.097 4.42035 14.3624 4.40933 14.6344V17.75H11.8156C12.2299 17.7498 12.6273 17.5852 12.9203 17.2922C13.2133 16.9992 13.3779 16.6019 13.3781 16.1875V1.8125C13.3779 1.39815 13.2133 1.0008 12.9203 0.707811C12.6273 0.414818 12.2299 0.25015 11.8156 0.25ZM11.5968 15.0719H5.50308C5.4202 15.0719 5.34071 15.039 5.28211 14.9803C5.2235 14.9217 5.19058 14.8423 5.19058 14.7594C5.19058 14.6765 5.2235 14.597 5.28211 14.5384C5.34071 14.4798 5.4202 14.4469 5.50308 14.4469H11.5968C11.6797 14.4469 11.7592 14.4798 11.8178 14.5384C11.8764 14.597 11.9093 14.6765 11.9093 14.7594C11.9093 14.8423 11.8764 14.9217 11.8178 14.9803C11.7592 15.039 11.6797 15.0719 11.5968 15.0719ZM5.1937 5.66563C4.92641 5.66563 4.67007 5.55945 4.48107 5.37044C4.29207 5.18144 4.18589 4.9251 4.18589 4.65781C4.18589 4.39052 4.29207 4.13418 4.48107 3.94518C4.67007 3.75618 4.92641 3.65 5.1937 3.65H5.9937V2.85313C5.99485 2.58701 6.10137 2.33218 6.28995 2.14441C6.47854 1.95664 6.73382 1.85122 6.99994 1.85122C7.26606 1.85122 7.52135 1.95664 7.70993 2.14441C7.89851 2.33218 8.00503 2.58701 8.00618 2.85313V3.65H8.79993C9.06722 3.65 9.32356 3.75618 9.51256 3.94518C9.70156 4.13418 9.80774 4.39052 9.80774 4.65781C9.80774 4.9251 9.70156 5.18144 9.51256 5.37044C9.32356 5.55945 9.06722 5.66563 8.79993 5.66563H8.0062V6.4625C8.00677 6.59501 7.98117 6.72632 7.93086 6.84891C7.88054 6.97149 7.80652 7.08293 7.71302 7.17683C7.61953 7.27073 7.50841 7.34524 7.38604 7.39608C7.26367 7.44692 7.13247 7.47309 6.99996 7.47309C6.86745 7.47309 6.73625 7.44692 6.61388 7.39608C6.49152 7.34524 6.38039 7.27073 6.2869 7.17683C6.19341 7.08293 6.11938 6.97149 6.06907 6.84891C6.01875 6.72632 5.99315 6.59501 5.99372 6.4625V5.66563H5.1937ZM2.74683 8.70625H11.5968C11.6797 8.70625 11.7592 8.73917 11.8178 8.79778C11.8764 8.85638 11.9093 8.93587 11.9093 9.01875C11.9093 9.10163 11.8764 9.18112 11.8178 9.23972C11.7592 9.29833 11.6797 9.33125 11.5968 9.33125H2.74683C2.66395 9.33125 2.58446 9.29833 2.52586 9.23972C2.46725 9.18112 2.43433 9.10163 2.43433 9.01875C2.43433 8.93587 2.46725 8.85638 2.52586 8.79778C2.58446 8.73917 2.66395 8.70625 2.74683 8.70625ZM2.74683 12.2C2.66395 12.2 2.58446 12.1671 2.52586 12.1085C2.46725 12.0499 2.43433 11.9704 2.43433 11.8875C2.43433 11.8046 2.46725 11.7251 2.52586 11.6665C2.58446 11.6079 2.66395 11.575 2.74683 11.575H11.5968C11.6797 11.575 11.7592 11.6079 11.8178 11.6665C11.8764 11.7251 11.9093 11.8046 11.9093 11.8875C11.9093 11.9704 11.8764 12.0499 11.8178 12.1085C11.7592 12.1671 11.6797 12.2 11.5968 12.2H2.74683Z" fill="#4673B7"/>
<path d="M3.4281 14.1875H0.693726C0.77939 14.5409 0.949942 14.868 1.1906 15.1406L2.90623 17.0875C3.14075 17.3567 3.4444 17.5566 3.78435 17.6656V14.6344C3.79443 14.5282 3.76292 14.4224 3.69647 14.339C3.63002 14.2556 3.53381 14.2013 3.4281 14.1875Z" fill="#4673B7"/>
<path d="M6.61873 5.35317V6.46255C6.61837 6.51284 6.62797 6.5627 6.64697 6.60927C6.66598 6.65583 6.694 6.69817 6.72944 6.73386C6.76487 6.76955 6.80702 6.79787 6.85345 6.8172C6.89988 6.83652 6.94967 6.84647 6.99997 6.84647C7.05026 6.84647 7.10005 6.83652 7.14648 6.8172C7.19291 6.79787 7.23506 6.76955 7.27049 6.73386C7.30593 6.69817 7.33396 6.65583 7.35296 6.60927C7.37196 6.5627 7.38156 6.51284 7.38121 6.46255V5.35317C7.38145 5.27037 7.41446 5.19103 7.47301 5.13248C7.53156 5.07393 7.6109 5.04092 7.69371 5.04067H8.79996C8.90357 5.03977 9.00298 4.99956 9.07808 4.92817C9.13111 4.87386 9.16688 4.80506 9.18087 4.73045C9.19487 4.65583 9.18646 4.57875 9.15672 4.50891C9.12698 4.43906 9.07723 4.37959 9.01374 4.33797C8.95025 4.29635 8.87587 4.27446 8.79996 4.27505H7.69373C7.61092 4.2748 7.53158 4.2418 7.47303 4.18325C7.41448 4.1247 7.38147 4.04535 7.38123 3.96255V2.85317C7.38051 2.75289 7.34137 2.6567 7.27185 2.58442C7.19956 2.51261 7.10187 2.47219 6.99998 2.47192C6.94989 2.47186 6.90029 2.48168 6.854 2.50081C6.80772 2.51995 6.76566 2.54803 6.73025 2.58344C6.69483 2.61886 6.66675 2.66091 6.64761 2.7072C6.62848 2.75348 6.61866 2.80309 6.61873 2.85317V3.96255C6.61848 4.04535 6.58547 4.1247 6.52692 4.18325C6.46837 4.2418 6.38903 4.2748 6.30623 4.27505H5.19373C5.0922 4.27505 4.99483 4.31538 4.92304 4.38717C4.85124 4.45896 4.81091 4.55633 4.81091 4.65786C4.81091 4.75939 4.85124 4.85676 4.92304 4.92855C4.99483 5.00034 5.0922 5.04067 5.19373 5.04067H6.30623C6.38903 5.04092 6.46837 5.07393 6.52692 5.13248C6.58547 5.19103 6.61848 5.27037 6.61873 5.35317Z" fill="#4673B7"/>
</svg>
