<svg width="19" height="20" viewBox="0 0 19 20" fill="none" xmlns="http://www.w3.org/2000/svg">
<path fill-rule="evenodd" clip-rule="evenodd" d="M9.50004 1.75C7.42897 1.75 5.75004 3.42893 5.75004 5.5C5.75004 7.57107 7.42897 9.25 9.50004 9.25C11.5711 9.25 13.25 7.57107 13.25 5.5C13.25 3.42893 11.5711 1.75 9.50004 1.75ZM4.25004 5.5C4.25004 2.6005 6.60055 0.25 9.50004 0.25C12.3995 0.25 14.75 2.6005 14.75 5.5C14.75 8.3995 12.3995 10.75 9.50004 10.75C6.60055 10.75 4.25004 8.3995 4.25004 5.5ZM6.85703 12.75C6.90406 12.75 6.95172 12.75 7.00005 12.75H12C12.0484 12.75 12.096 12.75 12.143 12.75C13.4012 12.7497 14.2031 12.7495 14.8789 12.9545C16.397 13.415 17.585 14.603 18.0455 16.1211C18.2505 16.797 18.2503 17.5989 18.2501 18.857C18.2501 18.904 18.25 18.9517 18.25 19C18.25 19.4142 17.9143 19.75 17.5 19.75C17.0858 19.75 16.75 19.4142 16.75 19C16.75 17.5499 16.7419 16.9911 16.6101 16.5566C16.295 15.5179 15.4822 14.705 14.4435 14.3899C14.009 14.2581 13.4502 14.25 12 14.25H7.00005C5.54991 14.25 4.99111 14.2581 4.55661 14.3899C3.51791 14.705 2.70507 15.5179 2.38999 16.5566C2.25818 16.9911 2.25004 17.5499 2.25004 19C2.25004 19.4142 1.91425 19.75 1.50004 19.75C1.08583 19.75 0.750041 19.4142 0.750041 19C0.750041 18.9517 0.750031 18.904 0.75002 18.857C0.749741 17.5989 0.749563 16.797 0.954576 16.1211C1.41509 14.603 2.60308 13.415 4.12119 12.9545C4.79702 12.7495 5.59892 12.7497 6.85703 12.75Z" fill="#323232"/>
</svg>
